<svg xmlns="http://www.w3.org/2000/svg" fill="none" viewBox="0 0 1258 1093">
  <path d="M702.272 615.776l.038-.02.037-.023c2.381-1.465 4.5-4.343 5.707-7.59 1.216-3.269 1.6-7.164.181-10.711l-.007-.017-.007-.017c-1.046-2.441-2.772-4.166-3.997-5.391l-.049-.049-.072-.072-.08-.061c-6.849-5.218-15.166-6.96-22.59-3.929-7.143 2.765-14.253 1.486-21.944-.076l-.819-.167c-7.337-1.495-15.196-3.097-23.38-.739-1.981.538-4.807.783-8.199 1.076-.712.062-1.448.126-2.207.195-4.274.389-9.101.942-13.518 2.313-4.42 1.373-8.578 3.609-11.36 7.468-2.8 3.885-4.048 9.193-3.081 16.375 1.332 10.307 8.717 15.847 15.667 16.213 2.464.242 4.969.068 7.305-.094.741-.051 1.465-.102 2.165-.137 3.011-.153 5.76-.058 8.389 1.049 1.808.765 3.592 2.046 5.429 3.632 1.313 1.134 2.592 2.367 3.907 3.635.537.518 1.08 1.041 1.633 1.566 3.671 3.479 7.839 7.074 12.792 7.436 3.793.355 7.137-1.227 10.115-3.611 2.968-2.375 5.731-5.674 8.389-9.031.588-.742 1.171-1.487 1.751-2.229 2.082-2.662 4.131-5.282 6.265-7.58 2.728-2.937 5.443-5.174 8.29-6.217 1.731-.617 3.512-.86 5.453-1.124.292-.039.587-.08.886-.122 2.226-.312 4.636-.726 6.911-1.951z" stroke="url(#sVi2snlJZfa)" stroke-width="3" stroke-miterlimit="10"/>
  <path d="M647.163 671.731l.007.004.008.003c4.864 2.27 9.965 3.346 15.452 1.289l.009-.004c5.7-2.179 10.575-7.295 14.798-12.886 2.684-3.554 5.225-7.476 7.575-11.105 1.33-2.053 2.599-4.013 3.799-5.758.641-.91 1.278-1.826 1.914-2.741 2.326-3.344 4.65-6.685 7.145-9.752 3.172-3.898 6.532-7.235 10.343-9.434l.011-.006.012-.007c1.419-.852 2.857-1.432 4.673-2.038l.011-.003.01-.004c2.169-.759 4.37-1.108 6.726-1.482.857-.136 1.734-.275 2.638-.438 3.292-.595 6.739-1.498 9.961-3.865 3.793-2.598 7.114-7.915 9.027-13.934 1.908-6.001 2.513-12.995.611-19.219a1.997 1.997 0 00-.193-.741 2.069 2.069 0 00-.319-.459l-.008-.009c-1.636-4.119-3.907-7.028-6.496-9.297-8.974-8.325-20.356-12.304-31.839-9.034-.991.245-1.671.243-2.667-.006l-.088-.022-.09-.011c-3.274-.409-6.603-2.145-10.252-4.047l-.425-.222c-3.671-1.912-7.697-3.958-11.816-4.13h-.002c-7.987-.32-15.774 1.279-23.461 3.026-.788.179-1.574.36-2.36.54-6.931 1.591-13.801 3.168-20.913 3.58-5.536.206-11.534 1.087-17.842 2.014-3.327.488-6.74.99-10.217 1.411-1.166.121-2.596-.136-4.296-.669-1.4-.438-2.861-1.021-4.397-1.635l-.995-.396c-1.863-.737-3.825-1.477-5.718-1.903-1.888-.426-3.858-.576-5.694.003l-.001.001c-6.903 2.189-11.894 7.864-15.404 14.643-3.517 6.796-5.651 14.892-6.753 22.295l-.003.017-.002.018c-.638 5.101-.635 10.501-.003 16.196 1.918 17.256 12.891 30.203 28.171 30.539 2.532.079 4.997.019 7.369-.049l.629-.018c2.16-.063 4.235-.123 6.268-.088 4.447.076 8.549.608 12.463 2.492l.037.018.037.016c3.456 1.439 6.707 4.07 10.079 7.443l.011.011.011.01c1.919 1.842 3.765 3.745 5.59 5.639l.48.498c1.657 1.719 3.303 3.427 4.95 5.038 3.601 3.523 7.317 6.695 11.429 8.668z" stroke="url(#sVi2snlJZfb)" stroke-width="3" stroke-miterlimit="10"/>
  <path d="M640.775 695.867l.006.004c6.342 4.122 13.643 7.193 22.028 4.849 8.767-2.32 16.017-9.851 22.103-18.278 4.054-5.613 7.736-11.845 11.046-17.45 1.657-2.805 3.221-5.453 4.693-7.788a825.996 825.996 0 002.273-3.568c7.179-11.299 14.859-23.388 24.975-30.497l.01-.006c2.048-1.463 4.419-2.654 6.537-3.563 3.498-1.397 7.006-2.012 10.66-2.652 1.023-.18 2.058-.361 3.107-.562 4.727-.906 9.574-2.2 14.194-5.66 5.201-3.7 9.756-11.442 12.361-20.242 2.6-8.786 3.356-18.95.68-27.805a2.518 2.518 0 00-.113-.669 1.802 1.802 0 00-.467-.741c-2.257-6.18-5.428-10.271-8.867-13.71l-.007-.007-.007-.007c-11.728-11.411-27.147-17.941-43.334-13.435-1.148.217-2.374.001-3.758-.553l-.013-.005-.012-.005c-2.034-.771-4.2-2.209-6.507-4.028-1.598-1.26-3.196-2.646-4.828-4.062-.727-.63-1.461-1.267-2.205-1.901-2.377-2.026-4.829-4.003-7.29-5.452-2.451-1.444-5.052-2.453-7.712-2.362-10.562.307-20.72 4.347-30.599 8.277l-1.325.527c-10.407 4.131-20.536 7.962-31.055 7.662l-.009-.001c-6.964-.158-13.9.634-20.954 1.686-2.482.371-4.967.771-7.475 1.175-4.664.752-9.406 1.516-14.342 2.12-1.667.183-3.832-.42-6.458-1.625-2.322-1.066-4.798-2.502-7.361-3.988l-.908-.526c-2.843-1.644-5.781-3.303-8.538-4.384-2.72-1.067-5.551-1.692-8.072-.916l-.013.004-.013.004c-10.111 3.316-16.867 12.844-21.461 23.838-4.614 11.044-7.199 23.924-8.759 34.527-1.27 7.948-.946 16.481-.324 24.882l.002.022.002.022c2.53 24.346 16.878 44.192 40.909 44.841h.006c3.308.077 6.536.003 9.656-.068l.204-.005c3.196-.073 6.272-.139 9.273-.044 5.986.191 11.561 1.026 16.874 3.679 4.515 2.41 9.036 5.725 13.262 10.254l.01.01.01.01c3.052 3.15 5.917 6.424 8.765 9.679a432.936 432.936 0 004.909 5.546c4.484 4.952 9.094 9.576 14.231 12.947z" stroke="url(#sVi2snlJZfc)" stroke-width="3" stroke-miterlimit="10"/>
  <path d="M539.411 665.665c2.262-.041 4.474-.102 6.641-.162 14.408-.399 26.796-.743 38.306 5.274 5.727 3.015 11.181 7.248 16.668 13.344l.02.022.02.021c4.307 4.424 8.34 9.231 12.383 14.051a759.719 759.719 0 003.939 4.672c5.367 6.301 10.89 12.386 17.082 17.149l.007.005c7.863 5.976 17.651 10.98 28.258 8.66l.009-.002c11.609-2.617 21.211-12.512 29.239-23.696 5.296-7.379 10.065-15.564 14.319-22.865 2.19-3.758 4.243-7.281 6.161-10.34 1.615-2.574 3.227-5.227 4.86-7.914 3.44-5.662 6.975-11.478 10.83-17.039 5.669-8.175 11.922-15.625 19.329-20.916l.025-.018.024-.018c2.65-2.061 5.61-3.549 8.724-5.107 4.68-2.033 9.422-2.862 14.343-3.723a257.54 257.54 0 003.71-.667c6.208-1.179 12.551-2.865 18.582-7.59 6.422-4.943 12.134-15.083 15.474-26.674 3.341-11.596 4.401-24.957 1.245-36.605a2.26 2.26 0 00-.127-.493c-.059-.159-.133-.304-.166-.371v-.018l-.062-.209c-2.578-8.7-7.098-14.5-11.562-18.965-14.829-14.829-34.005-23.573-54.595-17.782l-.034.01-.034.011c-.545.182-1.23.168-2.139-.068-.9-.233-1.859-.638-2.944-1.103-2.495-1.368-5.124-3.685-7.887-6.501-1.776-1.81-3.543-3.756-5.337-5.731a385.142 385.142 0 00-3.111-3.4c-2.842-3.056-5.76-5.993-8.691-8.128-2.913-2.122-6.039-3.601-9.27-3.416h-.009l-.009.001c-12.869.887-25.289 6.984-37.412 12.935-.946.465-1.89.928-2.833 1.388-13.168 6.429-26.034 12.214-39.414 11.463l-.01-.001c-9.633-.473-18.998.634-28.468 2.153-3.132.503-6.266 1.049-9.424 1.599-6.438 1.121-12.98 2.261-19.834 3.092-2.227.252-5.15-.724-8.678-2.606-3.118-1.663-6.463-3.893-9.902-6.185l-1.192-.794c-3.812-2.535-7.721-5.076-11.361-6.758-3.586-1.657-7.264-2.653-10.473-1.615-13.281 4.264-21.809 17.599-27.509 32.825-5.73 15.307-8.777 32.998-10.798 46.677v.001c-1.575 10.708-1.572 22.02-.318 33.308 1.575 15.742 6.778 30.568 15.672 41.416 8.928 10.89 21.548 17.724 37.733 17.403zm0 0h-.001l-.028-1.499.03 1.499h-.001z" stroke="url(#sVi2snlJZfd)" stroke-width="3" stroke-miterlimit="10"/>
  <path d="M628.21 744.232l-.009-.008c-7.261-6.155-13.705-13.707-20.038-21.478-1.144-1.404-2.284-2.814-3.425-4.225-5.201-6.435-10.419-12.89-16.108-18.832l-.011-.011-.011-.012c-6.75-7.363-13.139-12.522-20.091-16.149-14.661-7.613-30.639-7.101-49.713-6.489-1.393.045-2.803.09-4.23.132-20.391.638-36.051-7.911-47.04-21.528-10.953-13.571-17.239-32.13-19.123-51.595l-.001-.012c-1.247-14.034-1.568-28.155.634-41.69l.001-.005.019-.123c2.635-16.893 6.147-39.41 12.938-58.964 6.776-19.509 17.002-36.627 33.431-41.832l.009-.003h0c3.869-1.198 8.363.21 12.814 2.497 4.52 2.322 9.395 5.768 14.177 9.214l1.315.948c4.369 3.155 8.64 6.238 12.604 8.534 4.426 2.564 8.124 3.931 10.935 3.605l.007-.001c8.687-.965 17.004-2.483 25.254-3.989 3.65-.666 7.287-1.329 10.936-1.942 11.845-1.987 23.715-3.409 36.169-2.463l.011.001c16.263 1.355 31.803-6.395 47.696-15.159 1.37-.755 2.743-1.519 4.118-2.283 14.411-8.012 29.159-16.212 44.542-17.664h.002l.141 1.493c7.579-.739 15.599 9.411 23.534 19.455 5.402 6.837 10.764 13.624 15.923 16.896L628.21 744.232zm0 0c9.404 7.837 21.367 14.746 34.798 12.127 14.447-2.76 26.395-15.099 36.321-29.152 6.618-9.367 12.506-19.763 17.69-28.917 2.595-4.581 5.013-8.851 7.259-12.526l.004-.007c1.723-2.856 3.457-5.804 5.221-8.801 4.319-7.34 8.813-14.976 13.73-22.283 6.915-10.275 14.574-19.752 23.55-26.597l.02-.016.02-.016c3.296-2.697 6.909-4.809 10.863-6.634l.01-.004.01-.005c6.048-2.898 12.229-3.999 18.618-5.136 1.249-.222 2.505-.446 3.77-.685 7.673-1.448 15.499-3.443 22.935-9.262 7.824-6.034 14.777-18.51 18.814-32.895 4.04-14.395 5.251-31.014 1.32-45.603a2.33 2.33 0 00-.117-.472c-.034-.098-.095-.245-.119-.303l-.009-.022c-.045-.113-.048-.142-.048-.181v-.216l-.061-.207c-3.195-10.863-8.638-17.906-14.04-23.309-17.621-18.245-40.828-29.168-66.074-22.147-1.847.455-3.538-.167-6.308-1.703L628.21 744.232z" stroke="url(#sVi2snlJZfe)" stroke-width="3" stroke-miterlimit="10"/>
  <path d="M621.95 768.426l.01.009c11.269 10.016 25.398 18.495 41.011 15.893l.014-.002c17.415-3.064 31.699-17.744 43.494-34.599 8.053-11.507 15.114-24.296 21.274-35.455 2.869-5.196 5.543-10.038 8.03-14.233 2.474-4.123 4.951-8.421 7.477-12.804 4.668-8.097 9.5-16.482 14.782-24.58 8.12-12.45 17.177-24.017 28.012-32.411 3.972-3.055 8.227-5.787 12.765-7.904l.013-.007.014-.006c7.237-3.555 14.662-4.866 22.336-6.221 1.466-.259 2.94-.519 4.425-.797 9.191-1.721 18.573-4.105 27.564-11.169 9.064-7.122 17.259-22.008 22.033-39.226 4.777-17.226 6.221-37.104 1.514-54.49a2.975 2.975 0 00-.085-.414 7.082 7.082 0 00-.126-.404l-.005-.015-.036-.112c-.018-.055-.032-.097-.042-.133v-.117l-.06-.207c-3.817-13.041-10.193-21.321-16.509-27.953l-.002-.002c-20.403-21.345-47.958-34.776-77.566-26.518-2.173.47-4.502-.194-7.399-2.511l-.023-.018-.023-.017c-3.387-2.504-6.968-6.644-10.713-11.558-2.155-2.827-4.299-5.818-6.468-8.844a535.729 535.729 0 00-4.913-6.78c-3.831-5.173-7.744-10.06-11.661-13.54-3.872-3.441-8.051-5.78-12.37-5.231-17.98 2.159-35.137 12.466-51.904 22.539a1404.293 1404.293 0 01-5.108 3.059c-18.578 11.061-36.738 20.794-55.759 19.135-15.106-1.415-29.392.241-43.653 2.696-4.844.834-9.669 1.756-14.52 2.683-9.492 1.814-19.085 3.648-29.133 4.879-3.406.399-7.884-1.369-13.201-4.612-4.806-2.931-9.998-6.87-15.292-10.887l-1.452-1.101c-5.753-4.358-11.597-8.709-16.996-11.669-5.321-2.917-10.624-4.723-15.138-3.369l-.015.004-.014.005c-19.549 6.301-31.553 27.169-39.411 50.899-7.683 23.201-11.582 49.703-14.503 69.552l-.237 1.611c-2.51 16.321-2.191 33.23-.631 50.071v.004c2.193 23.031 9.486 45.239 22.417 61.492 12.972 16.305 31.591 26.566 56.185 25.614l.81-.03c24.267-.923 44.101-1.677 62.428 7.933 7.898 4.254 15.53 10.349 23.198 18.938l.005.006.005.005c6.391 7.018 12.269 14.538 18.133 22.04 1.362 1.743 2.723 3.485 4.09 5.219 7.228 9.171 14.595 18.112 22.929 25.66z" stroke="url(#sVi2snlJZff)" stroke-width="3" stroke-miterlimit="10"/>
  <path d="M615.72 792.644l.004.003c12.798 11.862 29.108 22.556 47.545 19.645l.002-.001c20.23-3.211 36.853-20.237 50.55-39.886 9.438-13.541 17.661-28.605 24.78-41.645 3.22-5.899 6.215-11.384 8.993-16.126l.003-.006c2.316-3.996 4.65-8.129 7.028-12.34 5.797-10.265 11.853-20.989 18.526-31.287 9.4-14.506 19.937-28.021 32.49-37.971l.005-.004c4.584-3.668 9.766-7.018 14.925-9.446l.012-.006.012-.006c8.567-4.219 17.325-5.796 26.282-7.408 1.681-.303 3.37-.607 5.065-.93 10.663-2.031 21.445-4.803 31.68-12.957 10.465-8.215 19.9-25.511 25.409-45.557 5.511-20.049 7.188-43.172 1.871-63.342-.03-.447-.146-.793-.215-.999l-.009-.027c-.077-.233-.078-.26-.078-.303v-.214l-.06-.206c-4.438-15.213-11.743-24.732-18.978-32.596l-.008-.009-.008-.008c-23.51-24.765-54.811-40.388-88.796-30.859l-.013.003-.013.004c-2.337.701-5.21-.4-8.561-3.142l-.007-.006c-3.867-3.123-7.941-8.179-12.179-14.112-2.448-3.429-4.89-7.061-7.355-10.728a675.742 675.742 0 00-5.497-8.091c-4.315-6.22-8.698-12.076-13.058-16.266-4.302-4.135-8.918-6.976-13.668-6.428l-.012.002-.013.001c-11.359 1.51-22.394 6.007-33.207 11.755-8.652 4.601-17.237 10.045-25.759 15.449a1519.47 1519.47 0 01-6.335 4.004c-21.341 13.396-42.275 25.115-64.212 22.847-17.76-1.886-34.543.083-51.213 3.004-5.407.948-10.787 1.992-16.184 3.039-11.304 2.194-22.68 4.402-34.526 5.765h-.005c-1.964.233-4.271-.174-6.914-1.173-2.634-.996-5.508-2.545-8.567-4.487-5.549-3.523-11.546-8.233-17.653-13.029l-1.92-1.507c-6.724-5.27-13.54-10.508-19.826-14.049-6.199-3.492-12.322-5.595-17.484-3.907-11.356 3.626-20.472 11.636-27.851 22.189-7.377 10.55-13.074 23.716-17.584 37.812-8.405 26.272-12.769 56.049-16.085 78.684l-.708 4.818h0c-2.819 19.109-2.501 39.118-.943 58.438v.01l.001.01c2.504 26.598 10.803 52.456 25.713 71.429 14.953 19.027 36.526 31.078 65.316 29.971l.009-.001c28.357-1.246 51.224-2.123 72.236 9.144l.003.002c9.143 4.876 18.013 11.902 26.607 21.723l.009.01c7.29 8.186 13.942 17.056 20.595 25.928 1.379 1.839 2.759 3.679 4.144 5.513 8.043 10.645 16.265 21.067 25.689 29.863z" stroke="url(#sVi2snlJZfg)" stroke-width="3" stroke-miterlimit="10"/>
  <path d="M609.485 816.857l.008.008c14.344 13.72 33.14 26.298 53.765 23.079 23.196-3.363 42.076-22.732 57.596-45.215 10.518-15.236 19.672-32.191 27.639-46.948 3.795-7.029 7.321-13.56 10.597-19.168l.003-.004c2.842-4.901 5.705-9.991 8.626-15.184 6.381-11.346 13.038-23.18 20.349-34.586 10.644-16.605 22.581-32.139 36.845-43.643l.006-.004.006-.005c5.184-4.27 10.99-7.938 17.116-11.001 9.744-4.872 19.733-6.661 29.937-8.488 1.909-.342 3.826-.685 5.75-1.05 12.14-2.304 24.401-5.465 36.035-14.864 11.865-9.306 22.539-29.012 28.746-51.889 6.224-22.937 8.049-49.391 1.905-72.393l-.04-.147-.068-.137c-.071-.142-.115-.296-.197-.625l-.009-.036c-.066-.263-.162-.649-.346-1.057-4.756-17.026-13.292-28.073-21.438-36.846l-.009-.009c-26.296-27.861-61.627-45.978-100.272-35.218-3.016.746-6.236-.437-9.788-3.694l-.027-.025-.028-.023c-4.406-3.659-8.986-9.6-13.708-16.558-2.78-4.096-5.552-8.454-8.345-12.844a782 782 0 00-5.924-9.219c-4.78-7.287-9.628-14.128-14.473-18.998-4.784-4.809-9.924-8.059-15.255-7.337l-.01.002c-12.84 1.823-25.296 7.122-37.497 13.877-9.711 5.377-19.337 11.721-28.897 18.022-2.439 1.607-4.873 3.212-7.303 4.796-24.064 15.692-47.703 29.407-72.568 26.679-20.41-2.354-39.607-.072-58.687 3.355-6.133 1.101-12.239 2.317-18.367 3.538-13.002 2.589-26.106 5.199-39.794 6.778l-.006.001c-2.265.271-4.926-.219-7.964-1.399-3.028-1.176-6.331-2.998-9.842-5.278-6.483-4.208-13.506-9.858-20.625-15.585l-1.811-1.457c-7.693-6.182-15.458-12.322-22.564-16.498-3.557-2.091-7.01-3.727-10.258-4.625-3.248-.897-6.387-1.081-9.243-.145-12.915 4.173-23.236 13.393-31.565 25.545-8.327 12.147-14.721 27.304-19.773 43.515-8.887 28.513-13.696 60.548-17.468 85.677-.516 3.431-1.011 6.734-1.495 9.88-3.443 21.913-3.125 44.726-.944 67.171 2.814 30.168 12.2 59.753 29.167 81.444 17.011 21.746 41.616 35.51 74.605 33.934 32.087-1.246 57.745-2.123 81.241 10.693l.008.004.008.004c10.374 5.492 20.179 13.446 30.028 24.526l.008.009c8.824 9.774 16.753 20.443 24.676 31.104 1.091 1.468 2.182 2.935 3.275 4.4 9.009 12.077 18.16 23.972 28.663 34.161z" stroke="url(#sVi2snlJZfh)" stroke-width="3" stroke-miterlimit="10"/>
  <path d="M862.497 623.155c-6.836 3.417-13.049 7.767-19.263 12.738-27.201 22.232-46.696 57.454-64.045 88.799-3.259 5.889-6.443 11.642-9.588 17.145-3.52 6.124-7.287 13.169-11.329 20.728-22.001 41.141-52.144 97.51-94.926 103.547l199.151-242.957zm0 0c11.255-5.694 22.849-7.776 34.42-9.854 15.579-2.798 31.118-5.588 45.737-17.176l-80.157 27.03zm-18.319 13.904c-15.971 13.054-29.305 30.683-41.152 49.461-8.102 12.841-15.463 26.141-22.497 38.85-3.265 5.9-6.46 11.672-9.626 17.211l-.001.004c-3.479 6.052-7.223 13.053-11.251 20.584-8.997 16.823-19.411 36.297-31.457 53.774-17.425 25.282-38.639 46.986-64.638 50.654l-.006.001c-23.411 3.207-44.37-10.91-60.29-26.829-11.587-11.43-21.666-24.641-31.57-38.079-1.401-1.901-2.798-3.806-4.195-5.711-8.503-11.595-17.017-23.203-26.445-33.958l-.006-.008-.007-.007c-10.768-12.614-21.811-21.5-33.124-27.615-26.301-14.067-55.088-13.495-90.562-11.939-37.189 1.733-64.749-13.819-83.741-38.289-18.946-24.41-29.34-57.644-32.465-91.381-2.493-25.245-2.81-50.851.943-75.554v-.001c.6-3.934 1.215-8.09 1.857-12.425 4.16-28.118 9.437-63.784 19.163-95.595 5.615-18.366 12.736-35.533 22.037-49.268 9.305-13.741 20.852-24.134 35.329-28.773h.001c3.174-1.014 6.671-.771 10.305.28 3.635 1.052 7.506 2.941 11.504 5.35 7.988 4.813 16.722 11.856 25.386 18.949l1.959 1.606c8.04 6.591 15.98 13.1 23.302 17.945 3.953 2.617 7.676 4.714 11.091 6.07 3.424 1.36 6.435 1.932 9.005 1.624h.004c15.043-1.764 29.514-4.666 43.907-7.552 7.108-1.425 14.196-2.846 21.325-4.125 21.492-3.854 43.179-6.369 66.234-3.546 27.639 3.34 53.984-12.294 80.771-30.282 2.876-1.931 5.756-3.888 8.641-5.849 10.474-7.118 21.015-14.282 31.643-20.391 13.566-7.798 27.401-13.957 41.643-16.172l76.983 340.986zm0 0c6.166-4.933 12.286-9.211 18.989-12.562l.007-.004c11.043-5.586 22.396-7.627 33.972-9.708 2.013-.362 4.032-.725 6.057-1.108 13.612-2.574 27.349-6.045 40.383-16.376l.008-.007c13.098-10.542 25.017-32.571 32.003-58.213 7-25.693 9.136-55.328 2.373-81.279l-.039-.152-.071-.141c-.071-.142-.115-.296-.197-.625l-.009-.036a6 6 0 00-.346-1.058c-5.376-19.196-14.842-31.484-23.911-41.492l-.007-.007-.007-.007c-29.1-31.291-68.48-51.585-111.793-39.571l-.02.006-.02.006c-3.207.987-6.667-.644-11.003-4.359-4.878-4.28-9.947-11.153-15.159-19.148-3.041-4.666-6.076-9.622-9.129-14.609-2.191-3.58-4.392-7.175-6.612-10.69-5.265-8.334-10.586-16.128-15.88-21.65-5.222-5.447-10.808-9.096-16.571-8.196l76.982 340.986z" stroke="url(#sVi2snlJZfi)" stroke-width="3" stroke-miterlimit="10"/>
  <path d="M1011.52 440.71l-.04-.15-.07-.138c-.04-.096-.09-.269-.18-.711l-.01-.06c-.06-.309-.16-.798-.36-1.254-5.99-21.364-16.382-35.206-26.399-46.163l-.008-.008c-32.202-34.703-75.623-57.181-122.982-43.92l-.008.002c-3.557 1.017-7.675-.68-12.235-4.936l-.005-.005-.005-.004c-5.353-4.901-10.894-12.691-16.575-21.704-3.283-5.21-6.559-10.737-9.852-16.294-2.417-4.077-4.843-8.17-7.288-12.166-5.731-9.363-11.516-18.099-17.274-24.288-5.681-6.106-11.738-10.17-17.987-9.188l-.005.001c-15.722 2.528-30.977 9.486-45.932 18.29-11.696 6.886-23.288 14.951-34.809 22.967-3.199 2.225-6.393 4.447-9.581 6.639-29.509 20.282-58.564 37.92-89.141 34.118-25.855-3.291-49.954-.464-73.817 3.896-7.838 1.432-15.632 3.025-23.452 4.623-16.06 3.282-32.229 6.587-49.115 8.567l-.005.001c-2.875.346-6.237-.311-10.048-1.851-3.802-1.536-7.945-3.906-12.34-6.857-8.111-5.446-16.909-12.749-25.814-20.14l-2.274-1.887c-9.635-7.987-19.34-15.904-28.211-21.311-4.44-2.705-8.732-4.821-12.756-5.996-4.022-1.175-7.876-1.439-11.364-.306-16.035 5.107-28.785 16.669-39.036 31.992-10.247 15.32-18.057 34.487-24.195 54.988-10.399 34.73-16.071 73.543-20.578 104.388a2616.774 2616.774 0 01-2.342 15.819l-.001.007c-4.062 27.495-3.745 55.893-1.253 83.927v.004c3.434 37.463 14.836 74.351 35.804 101.444 21.013 27.152 51.604 44.41 93.14 42.523l.003-.001c39.187-1.866 70.777-2.128 99.565 13.491l.006.003c12.547 6.733 24.526 16.547 36.547 30.419l.006.006.005.006c10.592 11.967 20.145 25.1 29.743 38.293 1.188 1.632 2.376 3.266 3.567 4.899 10.795 14.794 21.804 29.478 34.473 42.304 17.468 17.78 40.917 33.779 66.516 30.261 28.958-3.822 52.505-27.862 71.793-55.94 13.337-19.413 24.82-41.049 34.713-59.688 4.425-8.338 8.532-16.076 12.344-22.748 3.681-6.429 7.394-13.146 11.191-20.018 7.629-13.803 15.6-28.228 24.352-42.184 13.091-20.876 27.824-40.525 45.505-55.132 6.749-5.522 13.809-10.128 21.187-14.125 12.214-6.234 24.793-8.486 37.607-10.78 2.243-.401 4.493-.804 6.75-1.23 15.09-2.846 30.306-6.706 44.739-18.285 14.499-11.631 27.661-36.072 35.341-64.508 7.7-28.489 9.99-61.309 2.45-89.902z" stroke="url(#sVi2snlJZfj)" stroke-width="3" stroke-miterlimit="10"/>
  <path d="M663.841 923.214l.002-.001c31.766-3.97 57.649-30.429 78.878-61.379 14.513-21.157 27.036-44.713 37.843-65.039 5.01-9.423 9.65-18.152 13.95-25.627l.005-.008c3.935-6.951 7.909-14.225 11.98-21.673 8.348-15.277 17.099-31.293 26.746-46.78 14.334-23.013 30.543-44.679 50.086-60.683l.01-.008c7.385-6.154 15.049-11.361 23.302-15.335l.018-.009.018-.009c13.447-6.919 27.317-9.433 41.43-11.992 2.424-.439 4.855-.88 7.292-1.344 16.564-3.157 33.254-7.405 49.089-20.07 15.9-12.72 30.3-39.572 38.72-70.841 8.44-31.323 10.96-67.403 2.8-98.789l-.01-.049-.02-.048c-.12-.368-.18-.674-.26-1.062v-.019c-.08-.376-.17-.829-.35-1.368-6.61-23.584-17.94-38.691-28.91-50.599v-.003c-34.995-37.801-82.446-62.769-134.462-48.277-4.182 1.036-8.625-.973-13.813-5.856l-.004-.003c-5.82-5.442-11.847-14.123-18.024-24.162-3.56-5.786-7.116-11.931-10.69-18.108-2.639-4.559-5.287-9.136-7.956-13.599-6.235-10.431-12.524-20.149-18.776-27.013-6.167-6.772-12.721-11.237-19.461-10.086-17.2 2.842-33.872 10.618-50.214 20.452-12.73 7.66-25.339 16.619-37.874 25.526-3.546 2.52-7.087 5.036-10.623 7.517-32.23 22.616-63.995 42.256-97.508 37.839-28.502-3.759-55.09-.62-81.4 4.206-8.408 1.542-16.771 3.252-25.155 4.967-17.923 3.666-35.949 7.353-54.744 9.465l-.013.001c-3.181.385-6.894-.357-11.093-2.078-4.188-1.716-8.75-4.361-13.588-7.649-8.948-6.083-18.662-14.244-28.487-22.498l-2.427-2.038c-10.605-8.899-21.28-17.72-31.034-23.762-4.88-3.024-9.592-5.392-14.001-6.72-4.409-1.329-8.621-1.65-12.424-.439l-.004.001c-17.592 5.651-31.566 18.42-42.792 35.342-11.222 16.917-19.759 38.075-26.461 60.691-11.245 37.952-17.387 80.268-22.279 113.968-.936 6.451-1.826 12.586-2.698 18.314-4.685 30.612-4.056 61.813-1.254 92.326 3.745 41.035 16.234 81.65 39.22 111.461 23.032 29.872 56.578 48.843 102.159 46.486 42.913-2.177 77.289-2.437 108.554 15.035l.007.003.007.004c13.489 7.358 26.714 18.11 39.98 33.227l.004.005c12.025 13.581 22.695 28.461 33.39 43.377.994 1.385 1.987 2.771 2.982 4.155 11.686 16.268 23.548 32.427 37.302 46.65 19.037 19.973 44.65 37.513 73.035 34.005z" stroke="url(#sVi2snlJZfk)" stroke-width="3" stroke-miterlimit="10"/>
  <path d="M806.013 785.452v.002c-4.505 7.918-9.365 17.115-14.609 27.037-11.831 22.389-25.614 48.468-41.654 71.868-23.132 33.746-51.345 62.536-85.909 66.816m142.172-165.723L584.584 913.435m221.429-127.983c4.466-7.867 8.973-16.119 13.591-24.575 8.929-16.347 18.277-33.462 28.556-50.056 15.576-25.147 33.182-48.91 54.435-66.623 8.026-6.482 16.319-12.312 25.506-16.905l.007-.004M806.013 785.452l122.095-158.163M663.841 951.175l-.182-1.475.184 1.475h-.002zm0 0c-30.577 3.822-58.68-15.917-79.257-37.74m0 0l.003.002 1.085-1.031-1.089 1.027.001.002zm343.524-286.146l.007-.003m-.007.003l.007-.003m0 0c14.737-7.564 29.839-10.294 45.151-13.062 2.673-.484 5.353-.968 8.038-1.479 18.005-3.43 36.096-8.068 53.326-21.976 17.14-13.809 32.78-43.067 41.94-77.17 9.18-34.156 11.93-73.5 2.99-107.683l-.01-.048M928.115 627.286l151.435-221.418m0 0l-.01-.047m.01.047l-.01-.047m0 0c-.33-.983-.55-1.677-.55-2.322v-.206m.55 2.528l-.55-2.528m0 0l-.05-.199m.05.199l-.05-.199m0 0c-7.23-25.777-19.51-42.133-31.4-55.282l-.01-.007m31.41 55.289l-31.41-55.289m0 0c-37.8-41.231-89.294-68.373-145.978-52.627l-.011.003m145.989 52.624l-145.989-52.624m0 0l-.01.003m.01-.003l-.01.003m0 0c-4.445 1.307-9.477-.951-14.983-6.457l-.01-.01m14.993 6.467l-14.993-6.467m0 0l-.01-.009m.01.009l-.01-.009m0 0c-6.29-6.063-12.786-15.677-19.429-26.76-3.817-6.368-7.63-13.128-11.46-19.919-2.849-5.05-5.707-10.118-8.585-15.056-6.701-11.499-13.454-22.197-20.17-29.756-6.628-7.461-13.652-12.357-20.874-11.124l-.005.001m80.523 102.614l-80.523-102.614m0 0c-18.6 3.231-36.652 11.846-54.363 22.699-13.696 8.394-27.269 18.18-40.766 27.911-3.945 2.844-7.883 5.683-11.816 8.482-34.951 24.87-69.428 46.441-105.727 41.562-31.145-4.226-60.143-.854-88.826 4.438-9.544 1.762-19.032 3.73-28.55 5.705-19.16 3.976-38.44 7.976-58.536 10.359-3.49.386-7.556-.47-12.143-2.392-4.576-1.918-9.561-4.852-14.84-8.485-9.73-6.695-20.293-15.642-30.974-24.688l-2.768-2.344c-11.577-9.793-23.222-19.487-33.859-26.142-5.321-3.329-10.452-5.937-15.247-7.411-4.795-1.474-9.361-1.846-13.477-.56l-.009.003m511.901-49.137l-511.901 49.137m0 0c-19.149 6.119-34.348 20.056-46.549 38.566-12.198 18.504-21.463 41.672-28.727 66.444-12.106 41.284-18.721 87.278-24 123.984-1.053 7.328-2.054 14.285-3.034 20.76l-.001.003m102.311-249.757L191.793 484.988m0 0c-4.994 33.396-4.678 67.387-1.563 100.711 4.055 44.606 17.553 88.871 42.557 121.401 25.053 32.592 61.629 53.35 111.559 50.838 46.636-2.177 83.509-2.44 117.89 16.285l.003.002M191.793 484.988l270.446 289.237m0 0c14.722 7.974 28.877 19.654 43.076 36.013l-43.076-36.013z" stroke="url(#sVi2snlJZfl)" stroke-width="3" stroke-miterlimit="10"/>
  <path d="M817.822 799.739l-.002.004c-4.837 8.535-10.059 18.467-15.698 29.192-12.729 24.207-27.581 52.452-44.914 77.792-24.998 36.544-55.543 67.668-93.064 72.101-33.375 4.128-63.652-17.48-85.778-41.165-15.924-17.016-29.648-36.047-43.198-55.189-1.026-1.448-2.05-2.897-3.074-4.345-12.529-17.724-25.042-35.425-39.203-51.732-15.436-17.596-30.526-29.904-46.506-38.817-36.865-20.276-76.537-20.323-126.888-17.837m498.325 29.996l-498.406-31.494m498.406 31.494c4.716-8.383 9.48-17.182 14.367-26.209 9.653-17.828 19.785-36.54 30.963-54.673 16.821-27.285 35.904-53.067 59.02-72.177m-104.35 153.059l131.742-171.527M319.497 769.743l-.007.001-.074-1.499m.081 1.498h.001l-.082-1.498m.081 1.498c-54.128 2.981-93.659-19.488-120.693-54.801-26.984-35.248-41.491-83.241-45.857-131.417m166.469 184.72c-107.187 5.904-156.276-88.856-164.975-184.858-3.418-36.351-4.039-73.012 1.553-109.051 1.215-7.839 2.449-16.33 3.753-25.304 12.702-87.415 32.07-220.704 105.609-244.372 16.631-5.329 42.994 17.117 69.149 39.384 24.174 20.581 48.169 41.01 64.136 39.219M152.947 583.525l.001.002 1.489-.14-1.49.135v.003zm0 0c-3.424-36.421-4.053-73.215 1.565-109.419 1.211-7.814 2.442-16.286 3.744-25.247 5.699-39.222 12.758-87.81 25.464-131.567 7.807-26.887 17.77-52.045 30.919-72.147 13.151-20.107 29.554-35.25 50.258-41.913l.002-.001c4.393-1.408 9.291-1.014 14.452.582 5.163 1.598 10.7 4.433 16.456 8.058 11.505 7.247 24.13 17.815 36.697 28.501l2.96 2.519c11.609 9.883 23.102 19.667 33.68 26.988 5.734 3.968 11.149 7.176 16.121 9.275 4.983 2.103 9.408 3.044 13.206 2.619m0 0l.17 1.49m-.17-1.49h.003l.167 1.49m-.17-1.49c22.003-2.515 43.138-6.897 64.16-11.256 10.087-2.092 20.147-4.178 30.264-6.05 31.128-5.758 62.615-9.441 96.403-4.748h.002c19.589 2.744 38.693-1.759 57.638-10.38 18.96-8.628 37.673-21.336 56.463-34.905 4.276-3.087 8.556-6.22 12.844-9.358 14.515-10.623 29.11-21.304 43.845-30.472 19.099-11.884 38.571-21.317 58.65-24.86l.006-.001c3.826-.66 7.613.359 11.286 2.518 3.659 2.152 7.284 5.478 10.867 9.592 7.164 8.223 14.392 19.863 21.578 32.39 3.088 5.382 6.158 10.91 9.218 16.421 4.11 7.4 8.203 14.77 12.298 21.715 7.13 12.092 14.111 22.616 20.869 29.302m-506.221 21.582c22.07-2.522 43.321-6.928 64.381-11.295 41.199-8.542 81.662-16.931 126.07-10.764l314.726 1.554m1.044-1.077l-.011-.011-1.033 1.088m1.044-1.077a.1.1 0 00.011.01l-1.055 1.067m1.044-1.077c6.162 5.851 11.205 8.415 16.275 7.085m-17.319-6.008c6.214 5.903 11.806 9.01 17.709 7.456m-.39-1.448l-.01.003.4 1.445m-.39-1.448c61.345-16.983 116.563 12.652 157.453 56.976l.01.006c13.15 14.4 26.35 32.308 34.2 59.943l.06.201v.209c0 .644.21 1.339.54 2.321l.02.05.01.051c9.56 37.131 6.57 79.657-3.34 116.571-9.9 36.862-26.79 68.447-45.32 83.496-18.48 15-38.04 20.026-57.56 23.766-2.88.552-5.76 1.076-8.628 1.598-16.635 3.03-33.066 6.022-49.018 14.258m-28.427-359.446l.008-.002.382 1.45m0 0l28.037 357.998m0 0l.007-.004-.703-1.325.688 1.333a.03.03 0 01.008-.004zm0 0c-9.836 5.226-18.76 11.379-27.392 18.468m0 0l-.956-1.156.953 1.159.003-.003z" stroke="url(#sVi2snlJZfm)" stroke-width="3" stroke-miterlimit="10"/>
  <path d="M829.317 814.032c5.282-9.365 10.615-19.217 16.089-29.328 10.197-18.834 20.88-38.568 32.622-57.734 18.025-29.42 38.429-57.299 63.101-78.118 9.249-7.708 19.104-14.482 29.563-20.02 17.13-8.89 34.798-12.094 52.678-15.338 3.1-.562 6.2-1.126 9.32-1.72 20.99-4.012 42.03-9.427 61.91-25.671 19.77-16.138 37.9-50.13 48.54-89.825 10.65-39.749 13.87-85.537 3.53-125.466l-.01-.05-.02-.048c-.14-.429-.28-.939-.44-1.492-.15-.521-.31-1.081-.47-1.575-8.17-29.795-22.3-48.942-36.68-64.58-43.69-47.743-103.26-79.555-168.643-61.333-5.411 1.343-11.093-1.272-17.509-7.688-7.227-7.227-14.677-18.646-22.282-31.77-4.34-7.488-8.677-15.435-13.034-23.417-3.291-6.03-6.593-12.08-9.915-17.967-7.671-13.595-15.394-26.216-23.069-35.117-3.838-4.451-7.723-8.042-11.647-10.352-3.94-2.319-7.999-3.391-12.101-2.649h-.003c-21.477 3.934-42.327 14.203-62.798 27.105-15.674 9.879-31.208 21.357-46.667 32.779a2592.71 2592.71 0 01-14.141 10.4c-20.169 14.695-40.269 28.451-60.641 37.787-20.358 9.329-40.896 14.199-61.958 11.223h-.001c-36.587-5.16-70.483-1.166-103.944 5.099-10.871 2.035-21.677 4.305-32.51 6.58-22.586 4.744-45.296 9.515-68.98 12.239-4.105.464-8.883-.563-14.253-2.847-5.358-2.28-11.193-5.763-17.369-10.068-11.416-7.958-23.824-18.601-36.352-29.347l-3.113-2.669c-13.538-11.599-27.134-23.07-39.522-30.953-6.196-3.943-12.153-7.03-17.702-8.78-5.547-1.75-10.8-2.199-15.506-.715l-.007.002c-22.26 7.13-39.887 23.441-54.009 45.136-14.119 21.69-24.801 48.858-33.151 77.9-13.686 47.596-21.176 100.481-27.19 142.942-1.322 9.34-2.574 18.175-3.804 26.339-5.927 38.996-5.299 78.583-1.875 117.796v.004c4.676 51.751 20.27 103.394 49.274 141.361 29.052 38.03 71.532 62.287 129.7 59.152 54.08-2.797 96.546-2.75 135.895 19.075 16.926 9.542 33.566 22.786 49.92 41.918l.009.01.009.009c16.04 18.12 30.02 37.887 44.006 57.661l1.757 2.485c14.558 20.574 29.212 41.079 46.22 59.491 23.692 25.873 56.451 49.032 91.997 44.902h.002c40.317-4.74 73.194-38.198 100.094-77.538 18.863-27.586 34.974-58.365 48.724-84.633 5.873-11.218 11.314-21.614 16.356-30.587zm0 0l-1.307-.737m1.307.737l.001-.002-1.308-.735m0 0c5.256-9.319 10.578-19.148 16.046-29.249 25.89-47.819 55.071-101.718 96.112-136.347M828.01 813.295c-5.08 9.042-10.545 19.482-16.432 30.729-33.356 63.726-80.27 153.354-147.61 161.276l276.2-357.601m0 0c9.321-7.767 19.263-14.602 29.826-20.194 17.35-9.006 35.266-12.254 53.136-15.494 24.07-4.362 48.06-8.711 70.52-27.071l-153.482 62.759z" stroke="url(#sVi2snlJZfn)" stroke-width="3" stroke-miterlimit="10"/>
  <path d="M960.709 651.02l-.001.001c-26.539 22.373-48.42 52.274-67.688 83.792-12.712 20.795-24.239 42.209-35.216 62.602-5.677 10.546-11.207 20.82-16.678 30.593M960.709 651.02L839.816 827.276M960.709 651.02c9.86-8.319 20.337-15.408 31.745-21.574 18.466-9.76 37.546-13.227 56.836-16.735 3.16-.574 6.32-1.149 9.49-1.753 22.47-4.283 44.99-10.008 66.26-27.34 21.18-17.228 40.47-53.631 51.77-96.159 11.31-42.582 14.68-91.628 3.73-134.349a38.84 38.84 0 00-.48-1.752c-.15-.546-.3-1.067-.45-1.661v-.017M960.709 651.02l218.901-301.34M841.126 828.008l-.001.001-1.309-.733m1.31.732v-.001l-1.31-.731m1.31.732c-5.313 9.527-11.045 20.55-17.231 32.444-14.693 28.256-31.943 61.427-52.2 91.129-28.765 42.175-63.972 77.959-107.244 82.859m175.365-207.164c-5.35 9.594-11.105 20.661-17.305 32.583-35.557 68.379-85.743 164.891-158.233 173.091m.173 1.49l-.173-1.49m.173 1.49c-38.347 4.44-73.282-20.59-98.525-48.323m98.525 48.323h-.004l-.169-1.49m0 0l-98.352-46.833m0 0c-18.096-19.812-33.605-41.793-48.942-63.886l-3.016-4.348c-14.335-20.673-28.659-41.328-45.005-60.423-17.606-20.385-35.18-34.559-53.341-44.717m150.304 173.374L415.622 812.743M1179.61 349.68l-.01-.016m.01.016l-.01-.016m0 0c-8.78-31.99-23.85-52.39-39.18-68.969-46.49-51.167-110.1-85.15-180.148-65.675l-.01.003M1179.6 349.664L960.262 215.023m0 0c-5.665 1.619-11.935-1.532-18.716-8.311-7.696-7.849-15.633-20.182-23.727-34.318-4.618-8.066-9.237-16.624-13.873-25.215-3.503-6.491-7.016-13-10.547-19.33-8.156-14.623-16.354-28.186-24.477-37.75-4.063-4.784-8.166-8.639-12.302-11.121-4.15-2.491-8.418-3.648-12.722-2.865l-.01.002m116.374 138.908L843.888 76.115m0 0c-22.952 4.323-45.219 15.428-67.073 29.35-16.709 10.644-33.259 22.991-49.725 35.275a2826.378 2826.378 0 01-15.156 11.254c-21.508 15.821-42.938 30.625-64.655 40.668-21.701 10.036-43.595 15.274-66.052 12.066-39.229-5.626-75.611-1.399-111.519 5.292-11.808 2.2-23.544 4.662-35.309 7.13-24.09 5.052-48.305 10.131-73.521 13.049-4.413.502-9.543-.614-15.302-3.088-5.745-2.469-12-6.237-18.618-10.892-12.206-8.585-25.476-20.06-38.872-31.643l-3.419-2.955c-14.509-12.531-29.075-24.915-42.347-33.42-6.638-4.254-13.016-7.58-18.953-9.462-5.936-1.881-11.546-2.355-16.566-.753-23.816 7.597-42.667 25.075-57.764 48.352-15.095 23.273-26.504 52.441-35.418 83.62-14.534 50.837-22.497 107.273-28.893 152.607-1.447 10.255-2.814 19.942-4.158 28.867v.002m763.32-375.32l-763.32 375.32m0 0c-6.238 41.79-5.61 84.482-1.875 126.184h0m1.874-126.184l-1.874 126.184m0 0c4.986 55.477 21.589 110.773 52.614 151.382M78.693 577.618L131.307 729m0 0c31.074 40.674 76.586 66.56 139.103 63.113M131.307 729l139.103 63.113m0 0c57.485-3.107 103.064-2.752 145.212 20.63m-145.212-20.63l145.212 20.63" stroke="url(#sVi2snlJZfo)" stroke-width="3" stroke-miterlimit="10"/>
  <path d="M559.708 1010.35h-.001c-19.181-21.213-35.621-44.669-51.926-68.078l-1.204-1.73c-15.916-22.853-31.762-45.608-50.03-66.291l-.007-.008-.008-.009c-18.539-21.629-37.044-36.732-56.441-47.509-44.637-24.627-93.019-25.292-154.225-21.874h-.002c-66.712 3.602-115.175-24.071-148.23-67.464-33.004-43.328-50.616-102.273-55.913-161.322 0 0 0 0 0 0l1.494-.134c-4.039-44.429-4.66-89.789 2.175-134.217l514.318 568.636zm0 0c27.107 29.91 64.213 56.49 104.733 52.05h.006c46.07-5.2 83.608-43.32 114.277-88.255 21.687-31.775 40.126-67.26 55.792-97.406 6.501-12.51 12.524-24.101 18.104-34.126L559.708 1010.35zM48.732 408.317c-1.68 11.822-3.262 22.962-4.825 33.169l968.963 188.193c19.98-10.526 40.54-14.252 61.03-17.966 27.29-4.947 54.47-9.873 80.02-30.811 44.43-36.04 81.71-153.79 58.72-244.2l1.46-.364-.01-.003v-.039c-.3-1.195-.62-2.466-.95-3.448-9.4-34.144-25.4-55.775-41.64-73.587l-.01-.001c-49.58-54.266-116.92-90.742-191.633-70.03-6.308 1.64-12.91-1.553-19.944-9.198l-.014-.016-.015-.015c-8.24-8.469-16.684-21.735-25.26-36.911-4.95-8.76-9.895-18.065-14.853-27.394-3.64-6.85-7.288-13.713-10.949-20.382-8.603-15.672-17.237-30.187-25.802-40.403-4.283-5.11-8.609-9.217-12.972-11.85-4.379-2.644-8.882-3.85-13.425-2.986-24.43 4.636-48.115 16.558-71.357 31.51-17.753 11.419-35.329 24.662-52.817 37.839-5.398 4.067-10.787 8.128-16.171 12.127-22.868 16.986-45.657 32.876-68.76 43.636-23.088 10.754-46.397 16.339-70.325 12.823l-.002-.001c-41.872-6.093-80.664-1.555-118.942 5.642-12.572 2.364-25.068 5.008-37.596 7.66-25.691 5.438-51.518 10.905-78.417 14.033-4.722.541-10.205-.662-16.35-3.316-6.131-2.649-12.805-6.691-19.862-11.681-13.032-9.214-27.201-21.53-41.492-33.954l-3.591-3.12c-15.46-13.423-30.968-26.682-45.079-35.779-7.058-4.551-13.831-8.103-20.127-10.108-6.293-2.005-12.226-2.5-17.521-.778-25.37 8.141-45.423 26.824-61.471 51.703-16.046 24.875-28.154 56.043-37.61 89.357-15.172 53.442-23.583 112.656-30.4 160.649z" stroke="url(#sVi2snlJZfp)" stroke-width="3" stroke-miterlimit="10"/>
  <path d="M221.634 816.036h-.002c-70.908 3.913-122.324-25.548-157.397-71.699C29.212 698.253 10.513 635.58 4.75 572.961c-4.357-47.3-4.985-95.895 2.185-143.587v-.005c1.689-11.005 3.397-23.06 5.214-35.874 7.193-50.744 16.074-113.402 32.07-170.02 10.02-35.468 22.855-68.666 39.876-95.148 17.023-26.485 38.301-46.355 65.227-54.963 5.571-1.8 11.832-1.249 18.489.908 6.661 2.159 13.839 5.962 21.331 10.83 14.979 9.734 31.467 23.895 47.917 38.231 1.207 1.051 2.414 2.104 3.619 3.156 15.274 13.324 30.431 26.547 44.362 36.427 7.511 5.327 14.615 9.644 21.142 12.474 6.54 2.836 12.381 4.125 17.412 3.546 28.434-3.321 55.768-9.097 82.966-14.844 13.458-2.844 26.882-5.681 40.388-8.209 40.726-7.624 82.004-12.395 126.518-5.835l-.219 1.484.219-1.484c25.402 3.749 50.146-2.224 74.646-13.71 24.516-11.493 48.692-28.46 72.939-46.591 5.746-4.297 11.497-8.66 17.256-13.03 18.502-14.036 37.088-28.137 55.853-40.3C818.775 20.46 843.839 7.74 869.669 2.793c5.824-1.122 11.578 1.034 17.144 5.252 5.564 4.216 11.114 10.617 16.634 18.37 10.911 15.324 21.954 36.29 32.914 57.1l.396.752c11.124 21.119 22.159 42.003 32.976 56.917 5.41 7.46 10.695 13.324 15.828 16.976 5.117 3.64 9.911 4.967 14.489 3.73 79.06-21.647 150.44 17.004 202.83 74.693 17.19 18.756 34.12 41.949 44.14 78.281 13.45 48.48 9.99 104.76-2.75 153.751-12.73 48.937-34.82 90.936-58.95 110.651-24.07 19.662-49.47 26.165-74.85 31.03-3.59.69-7.19 1.347-10.78 2.003-21.79 3.981-43.38 7.926-64.37 19.016v.001c-40.684 21.418-72.67 58.453-99.879 99.849-19.196 29.204-35.942 60.457-51.684 89.835-6.583 12.286-12.991 24.244-19.329 35.588m-642.794-40.553l641.484 39.823m-641.484-39.823c46.599-2.641 86.074-3.01 122.053 6.669 35.913 9.662 68.44 29.365 101.043 67.068l-223.096-73.737zm642.794 40.553l-.001.002-1.309-.732m1.31.73l.001-.001-1.311-.729m1.31.73c-5.899 10.62-12.277 22.92-19.167 36.209-16.596 32.011-36.166 69.756-59.197 103.56-32.57 47.802-72.44 88.342-121.312 93.702l-.163-1.5c82.156-9.01 139.219-119.069 179.288-196.354 6.904-13.317 13.304-25.661 19.241-36.347" stroke="url(#sVi2snlJZfq)" stroke-width="3" stroke-miterlimit="10"/>
  <defs>
    <linearGradient id="sVi2snlJZfa" x1="652.872" y1="587.216" x2="652.872" y2="646.19" gradientUnits="userSpaceOnUse">
      <stop offset=".417" stop-color="#BF1922"/>
      <stop offset="1" stop-color="#FF3A7B" stop-opacity="0"/>
    </linearGradient>
    <linearGradient id="sVi2snlJZfb" x1="651.108" y1="553.832" x2="651.108" y2="672.621" gradientUnits="userSpaceOnUse">
      <stop offset=".417" stop-color="#BF1922"/>
      <stop offset="1" stop-color="#FF3A7B" stop-opacity="0"/>
    </linearGradient>
    <linearGradient id="sVi2snlJZfc" x1="649.619" y1="517.206" x2="649.619" y2="700.032" gradientUnits="userSpaceOnUse">
      <stop offset=".417" stop-color="#BF1922"/>
      <stop offset="1" stop-color="#FF3A7B" stop-opacity="0"/>
    </linearGradient>
    <linearGradient id="sVi2snlJZfd" x1="648.3" y1="480.847" x2="648.3" y2="727.779" gradientUnits="userSpaceOnUse">
      <stop offset=".417" stop-color="#BF1922"/>
      <stop offset="1" stop-color="#FF3A7B" stop-opacity="0"/>
    </linearGradient>
    <linearGradient id="sVi2snlJZfe" x1="646.498" y1="444.161" x2="646.498" y2="755.423" gradientUnits="userSpaceOnUse">
      <stop offset=".417" stop-color="#BF1922"/>
      <stop offset="1" stop-color="#FF3A7B" stop-opacity="0"/>
    </linearGradient>
    <linearGradient id="sVi2snlJZff" x1="645.07" y1="407.47" x2="645.07" y2="783.302" gradientUnits="userSpaceOnUse">
      <stop offset=".417" stop-color="#BF1922"/>
      <stop offset="1" stop-color="#FF3A7B" stop-opacity="0"/>
    </linearGradient>
    <linearGradient id="sVi2snlJZfg" x1="644.177" y1="370.82" x2="644.177" y2="811.275" gradientUnits="userSpaceOnUse">
      <stop offset=".417" stop-color="#BF1922"/>
      <stop offset="1" stop-color="#FF3A7B" stop-opacity="0"/>
    </linearGradient>
    <linearGradient id="sVi2snlJZfh" x1="642.183" y1="334.13" x2="642.183" y2="838.952" gradientUnits="userSpaceOnUse">
      <stop offset=".417" stop-color="#BF1922"/>
      <stop offset="1" stop-color="#FF3A7B" stop-opacity="0"/>
    </linearGradient>
    <linearGradient id="sVi2snlJZfi" x1="640.675" y1="297.437" x2="640.675" y2="866.556" gradientUnits="userSpaceOnUse">
      <stop offset=".417" stop-color="#BF1922"/>
      <stop offset="1" stop-color="#FF3A7B" stop-opacity="0"/>
    </linearGradient>
    <linearGradient id="sVi2snlJZfj" x1="639.239" y1="261.078" x2="639.239" y2="894.239" gradientUnits="userSpaceOnUse">
      <stop offset=".417" stop-color="#BF1922"/>
      <stop offset="1" stop-color="#FF3A7B" stop-opacity="0"/>
    </linearGradient>
    <linearGradient id="sVi2snlJZfk" x1="638.004" y1="224.696" x2="638.004" y2="922.163" gradientUnits="userSpaceOnUse">
      <stop offset=".417" stop-color="#BF1922"/>
      <stop offset="1" stop-color="#FF3A7B" stop-opacity="0"/>
    </linearGradient>
    <linearGradient id="sVi2snlJZfl" x1="636.491" y1="187.405" x2="636.491" y2="950.152" gradientUnits="userSpaceOnUse">
      <stop offset=".417" stop-color="#BF1922"/>
      <stop offset="1" stop-color="#FF3A7B" stop-opacity="0"/>
    </linearGradient>
    <linearGradient id="sVi2snlJZfm" x1="634.79" y1="151.045" x2="634.79" y2="977.837" gradientUnits="userSpaceOnUse">
      <stop offset=".417" stop-color="#BF1922"/>
      <stop offset="1" stop-color="#FF3A7B" stop-opacity="0"/>
    </linearGradient>
    <linearGradient id="sVi2snlJZfn" x1="632.872" y1="114.041" x2="632.872" y2="1005.77" gradientUnits="userSpaceOnUse">
      <stop offset=".417" stop-color="#BF1922"/>
      <stop offset="1" stop-color="#FF3A7B" stop-opacity="0"/>
    </linearGradient>
    <linearGradient id="sVi2snlJZfo" x1="631.554" y1="77.371" x2="631.554" y2="1033.45" gradientUnits="userSpaceOnUse">
      <stop offset=".417" stop-color="#BF1922"/>
      <stop offset="1" stop-color="#FF3A7B" stop-opacity="0"/>
    </linearGradient>
    <linearGradient id="sVi2snlJZfp" x1="629.923" y1="41.299" x2="629.923" y2="1061.39" gradientUnits="userSpaceOnUse">
      <stop offset=".417" stop-color="#BF1922"/>
      <stop offset="1" stop-color="#FF3A7B" stop-opacity="0"/>
    </linearGradient>
    <linearGradient id="sVi2snlJZfq" x1="628.551" y1="4" x2="628.551" y2="1089.07" gradientUnits="userSpaceOnUse">
      <stop offset=".417" stop-color="#BF1922"/>
      <stop offset="1" stop-color="#FF3A7B" stop-opacity="0"/>
    </linearGradient>
  </defs>
</svg>
