<svg xmlns="http://www.w3.org/2000/svg" fill="none" viewBox="0 0 1397 1344">
  <path d="M665.449 755.195l-.001-.005c-1.021-8.399.334-14.201 2.982-18.277 2.651-4.078 6.687-6.566 11.303-8.156 4.627-1.594 9.759-2.259 14.515-2.739.794-.08 1.58-.155 2.354-.229 3.789-.362 7.272-.694 9.748-1.443l.008-.003.008-.002c8.47-2.711 16.637-.867 24.986 1.017l.709.16c8.505 1.915 17.224 3.741 26.055-.057l.009-.004.009-.004c7.174-3.256 15.413-1.511 22.467 4.425 1.38 1.531 2.965 3.316 3.92 5.783 1.286 3.574.978 7.657-.228 11.255-1.208 3.607-3.26 6.553-5.268 7.936-2.068 1.228-4.317 1.685-6.766 2.066-.313.049-.63.097-.95.145-2.15.322-4.449.666-6.675 1.548l-.008.003c-3.787 1.537-7.167 4.723-10.299 8.464-2.464 2.943-4.841 6.315-7.175 9.626-.637.904-1.271 1.803-1.903 2.688-2.971 4.162-5.893 8.006-8.946 10.717-3.049 2.707-6.094 4.164-9.334 3.821l-.013-.001-.013-.001c-2.178-.173-4.279-1.148-6.385-2.668-2.108-1.523-4.156-3.544-6.231-5.726-.581-.61-1.165-1.235-1.753-1.864-1.488-1.592-2.998-3.207-4.521-4.665-2.13-2.04-4.368-3.859-6.768-4.985l-.002-.001c-3.524-1.646-7.11-1.729-10.577-1.534-.895.05-1.775.117-2.645.184-2.565.197-5.041.387-7.547.109l-.027-.003-.028-.002c-6.361-.353-13.669-6.046-15.01-17.578z" stroke="url(#AP8C8i4rka)" stroke-width="2" stroke-miterlimit="10"/>
  <path d="M763.117 789.774l-.005.009c-1.424 2.298-2.878 4.788-4.379 7.361-2.579 4.419-5.298 9.08-8.253 13.419-4.669 6.859-9.73 12.599-15.336 14.977-5.167 2.149-10.04 1.115-15.096-1.501-4.177-2.225-8.068-5.869-12.038-10.177-1.809-1.963-3.619-4.046-5.473-6.18l-.532-.613c-2.035-2.341-4.124-4.731-6.303-7.052-3.829-4.247-7.743-7.823-12.079-9.834-4.87-2.594-9.896-3.276-15.032-3.373-2.336-.044-4.716.032-7.115.11l-.709.022c-2.649.084-5.328.155-8.065.06h-.011c-15.215-.367-26.79-14.719-28.846-35.253-.687-6.857-.686-13.32-.003-19.392 1.206-8.975 3.526-18.671 7.281-26.719 3.768-8.073 8.9-14.321 15.634-16.69 1.384-.485 3.026-.408 4.909.063 1.881.47 3.892 1.303 5.973 2.217.354.155.71.313 1.068.472 1.717.76 3.466 1.536 5.138 2.117 2.015.7 4.052 1.169 5.927.95l.009-.001.008-.001c4.06-.546 7.956-1.182 11.705-1.794 6.934-1.131 13.367-2.181 19.407-2.429h.012l.011-.001c8.191-.524 16.096-2.538 23.806-4.503l2.638-.67c8.584-2.164 16.949-4.049 25.454-3.672 3.874.179 7.821 2.341 12.027 4.771l.656.379c3.882 2.249 7.981 4.624 12.123 5.217 1.531.415 2.743.409 4.284-.018l.017-.005.017-.005c11.669-3.698 23.427.694 32.959 10.512l.01.01.011.011c2.664 2.586 5.004 5.915 6.686 10.763l.066.192.136.15.057.064.032.036s0 0 0 0v.14l.038.134c2.016 7.081 1.438 15.249-.606 22.383-2.053 7.166-5.524 13.079-9.09 15.775l-.015.012-.014.012c-3.107 2.539-6.472 3.555-10.009 4.265-.875.175-1.773.333-2.682.493-2.7.474-5.508.968-8.18 2.004-2.11.78-3.92 1.579-5.74 2.789-4.656 2.982-8.64 7.421-12.265 12.362-2.852 3.887-5.518 8.141-8.121 12.293a723.14 723.14 0 01-2.102 3.339z" stroke="url(#AP8C8i4rkb)" stroke-width="2" stroke-miterlimit="10"/>
  <path d="M735.597 859.733l-.008.002-.008.002c-8.208 2.55-15.492-.682-22.347-5.624-5.437-3.959-10.396-9.45-15.37-15.543a526.949 526.949 0 01-5.378-6.74c-3.211-4.07-6.494-8.231-9.936-12.172-4.925-5.852-10.21-10.154-15.505-13.287l-.012-.007-.013-.007c-6.433-3.568-13.111-4.641-19.995-4.884-3.438-.121-6.946-.036-10.5.054l-.204.005c-3.496.089-7.042.179-10.668.085-24.891-.746-40.307-23.511-43.066-52.925-.692-10.37-1.03-20.661.34-30.161h0l.002-.011c1.73-13.053 4.578-28.732 9.609-42.086 5.049-13.404 12.19-24.18 22.322-27.87 1.885-.639 4.292-.192 7.173 1.061 2.857 1.243 5.967 3.183 9.161 5.232.338.216.677.434 1.016.653 2.839 1.826 5.721 3.679 8.437 5.063 3.011 1.534 6.018 2.598 8.675 2.271h0l.012-.002c5.558-.755 10.953-1.719 16.199-2.656 2.785-.497 5.527-.988 8.23-1.435 7.825-1.295 15.377-2.244 22.908-2.054 12.396.392 24.213-4.618 35.753-9.7l1.314-.579c11.168-4.925 22.091-9.742 33.376-10.105h.006c2.212-.085 4.58.846 7.119 2.506 2.53 1.654 5.119 3.955 7.758 6.451a376.42 376.42 0 012.388 2.285c1.845 1.775 3.705 3.565 5.54 5.169 2.628 2.298 5.301 4.307 7.965 5.43 1.834.812 3.794 1.276 5.814.828l.04-.009.04-.013c16.83-5.227 33.093 2.191 45.772 15.874 3.737 4.146 7.117 9.023 9.492 16.548l.22.699h.107l.01.038c2.886 10.358 2.132 22.476-.696 33.078-2.839 10.639-7.704 19.525-12.828 23.558l-.01.009-.011.008c-4.668 3.884-9.593 5.38-14.737 6.474-1.077.228-2.169.44-3.273.654-4.126.801-8.411 1.632-12.613 3.496l-.012.005-.012.006c-2.464 1.171-5.309 2.746-7.816 4.731-6.536 5.096-12.152 12.12-17.204 19.704-4.07 6.111-7.804 12.634-11.361 18.849a1189.29 1189.29 0 01-2.541 4.425l-.003.006c-1.721 3.028-3.506 6.382-5.378 9.898-3.656 6.869-7.639 14.351-12.1 21.204-6.753 10.372-14.383 18.927-23.193 21.509z" stroke="url(#AP8C8i4rkc)" stroke-width="2" stroke-miterlimit="10"/>
  <path d="M789.442 825.201h0c-2.227 3.938-4.56 8.382-7.025 13.078-4.705 8.961-9.892 18.84-15.741 27.88-8.921 13.788-19.139 25.201-31.037 28.177-10.601 2.571-20.663-2.913-29.278-10.176-6.674-5.695-12.687-13.025-18.663-20.807-1.444-1.881-2.887-3.79-4.337-5.706-4.522-5.981-9.105-12.043-13.981-17.599-6.301-7.763-12.627-13.228-19.329-17.141l-.003-.002c-13.526-7.843-28.149-7.381-44.164-6.876-2.41.076-4.851.153-7.324.203h-.002c-17.135.377-30.453-7.601-39.956-20.459-9.525-12.888-15.205-30.676-16.928-49.783h.001l-.001-.01c-1.381-13.782-1.379-27.549.343-40.537 2.253-16.918 5.623-38.564 11.917-57.214 6.32-18.727 15.468-34.066 29.032-38.896h.003c2.529-.908 5.791-.127 9.678 1.865 3.843 1.971 8.038 4.986 12.317 8.142l1.335.986c3.815 2.822 7.664 5.668 11.269 7.802 3.983 2.356 7.905 3.993 11.301 3.562l.008-.001c7.72-1.038 15.15-2.473 22.377-3.869 3.506-.677 6.965-1.345 10.386-1.954 10.507-1.871 20.73-3.201 31.188-2.631 15.755.981 30.735-6.581 45.347-14.493 1.019-.552 2.036-1.106 3.052-1.659 13.661-7.433 27.042-14.714 40.834-15.771 2.653-.165 5.5 1.179 8.565 3.657 3.05 2.464 6.161 5.92 9.321 9.69 1.125 1.342 2.259 2.727 3.397 4.116 2.029 2.479 4.067 4.969 6.079 7.244 3.143 3.552 6.325 6.703 9.497 8.613l.042.026.045.021.041.02c1.184.562 2.46 1.169 3.709 1.528 1.263.363 2.621.512 3.934.035 21.655-6.745 42.068 3.337 58.225 21.26 4.764 5.285 9.506 12.045 12.232 22.183.017.175.059.328.099.448.048.143.109.278.149.366l.006.013c.047.104.069.156.083.197l.002.005v.085l.029.118c3.417 13.834 2.314 29.908-1.341 43.979-3.664 14.107-9.836 25.985-16.366 31.557l-.007.006c-6.223 5.411-12.785 7.385-19.573 8.815-1.308.275-2.631.531-3.963.789-5.537 1.071-11.244 2.175-16.809 4.866l-.025.012-.025.014-.041.022c-3.436 1.906-6.972 3.867-10.166 6.619-8.62 6.835-15.794 16.366-22.183 26.587-4.347 6.953-8.362 14.282-12.224 21.331a811.927 811.927 0 01-5.351 9.667z" stroke="url(#AP8C8i4rkd)" stroke-width="2" stroke-miterlimit="10"/>
  <path d="M736.013 928.56l.005-.001c7.471-1.583 14.419-5.952 20.899-12.131 6.479-6.178 12.443-14.121 17.946-22.764 7.319-11.493 13.753-24.098 19.499-35.356 2.919-5.718 5.66-11.089 8.249-15.79 1.892-3.479 3.81-7.094 5.767-10.784 4.836-9.115 9.914-18.688 15.447-27.809 7.775-12.816 16.505-24.842 26.85-33.598 3.887-3.526 8.118-6.26 12.678-8.595 7.113-3.78 14.432-5.221 21.565-6.626a360.26 360.26 0 004.089-.822c8.444-1.768 16.647-4.129 24.426-10.882l.006-.005c8.088-6.916 15.648-21.675 20.093-39.244 4.436-17.531 5.714-37.647 1.429-55.14l-.029-.117v-.089l-.007-.023c-.026-.081-.046-.126-.107-.295a3.59 3.59 0 01-.23-1.111c-3.421-12.822-9.203-21.117-15.001-27.548l-.006-.007-.005-.006c-19.284-22.155-44.211-34.92-71.067-26.624l-.014.005-.014.003c-3.234.897-6.008-.505-9.113-2.419l-.026-.016-.025-.018c-3.688-2.594-7.407-6.86-11.097-11.676-2.291-2.99-4.613-6.25-6.93-9.502-1.412-1.982-2.821-3.962-4.221-5.876-3.725-5.092-7.402-9.756-11.006-13.048-3.634-3.32-6.99-5.056-10.096-4.72h-.003c-9.017.944-17.885 4.299-26.738 8.797-7.336 3.727-14.611 8.211-21.929 12.722-1.521.938-3.044 1.877-4.569 2.81-17.64 10.791-35.684 20.897-54.784 19.133-13.559-1.142-26.542.569-39.688 3.016-3.992.743-8.006 1.555-12.056 2.375-9.25 1.872-18.689 3.782-28.481 4.989M736.013 928.56L607.594 598.776M736.013 928.56c-13.7 2.965-26.192-4.794-36.553-14.371-7.899-7.431-14.959-16.593-22.021-26.205-1.261-1.717-2.523-3.449-3.79-5.187-5.805-7.967-11.709-16.07-18.138-23.519m80.502 69.282l-81.266-68.636m-47.028-260.156l-.003.001-.122-.993m.125.992h.003l-.128-.992m.125.992c-2.083.269-4.325-.162-6.633-1.031-2.315-.871-4.757-2.206-7.267-3.819-4.548-2.922-9.427-6.83-14.276-10.714l-1.48-1.185c-5.363-4.287-10.645-8.418-15.479-11.174-4.886-2.785-9.022-3.987-12.216-2.892m57.226 29.823c-7.112.918-17.222-7.179-27.432-15.357-11.193-8.965-22.507-18.026-30.122-15.411-34.992 12.298-44.711 81.431-50.607 123.362l-.013.096c-2.427 16.538-2.081 33.846-.694 51.153m51.642-173.666l.003-.002-.331-.943.325.946.003-.001zm0 0c-8.481 2.981-15.498 9.433-21.35 18.197-5.854 8.767-10.5 19.785-14.255 31.78-7.505 23.971-11.396 51.645-14.345 72.614l-.008.061-.001.006c-2.411 16.43-2.07 33.652-.686 50.924m0 0l-.001-.003-.996.087m.997-.084v.004l-.997.08m.997-.084c2.07 23.726 8.966 46.128 20.788 62.379 11.799 16.217 28.491 26.305 50.297 25.549h.001c1.647-.054 3.278-.113 4.894-.171 21.084-.758 39.635-1.425 56.66 8.381l.002.001c8.103 4.69 15.47 11.316 23.146 20.604M498.726 742.619c4.161 47.691 27.737 90.382 72.117 88.844 1.627-.054 3.237-.112 4.831-.169 21.159-.758 39.424-1.412 56.19 8.245 7.974 4.616 15.255 11.154 22.883 20.385m.764-.646l-.007-.008-.757.654m.764-.646l.007.009-.771.637" stroke="url(#AP8C8i4rke)" stroke-width="2" stroke-miterlimit="10"/>
  <path d="M815.436 860.217l-.002.004c-2.85 5.331-5.874 11.408-9.099 17.889-6.842 13.749-14.589 29.317-23.5 43.442-6.542 10.372-13.675 19.898-21.473 27.276-7.797 7.377-16.211 12.561-25.323 14.341-16.121 2.979-31.047-6.69-43.488-18.956-9.123-9.166-17.229-20.067-25.287-31.408-1.511-2.127-3.02-4.269-4.534-6.418-6.546-9.291-13.179-18.705-20.382-27.479-8.726-10.84-17.479-18.618-26.613-24.074l-.01-.006c-21.108-12.283-43.912-11.319-70.675-10.189l-1.293.055h-.001c-26.481 1.137-46.461-11.062-60.47-30.593-14.034-19.566-22.058-46.489-24.476-74.644-1.73-20.728-2.072-41.416.688-61.315l.001-.005.255-1.925c3.265-24.618 7.59-57.22 16.094-85.707 4.363-14.616 9.812-28.098 16.751-38.841 6.937-10.74 15.317-18.673 25.522-22.325 3.869-1.282 8.882.353 14.762 3.929 5.823 3.541 12.19 8.791 18.637 14.208l1.639 1.379c5.879 4.949 11.783 9.918 17.269 13.629 3.002 2.031 5.914 3.71 8.662 4.808 2.742 1.096 5.388 1.642 7.831 1.323l.005-.001c11.3-1.535 22.176-3.84 32.828-6.098 5.39-1.142 10.723-2.273 16.025-3.285 15.827-3.022 31.49-5.021 47.989-3.305l.007.001c22.248 2.154 43.254-10.481 63.879-24.103 1.898-1.253 3.792-2.515 5.685-3.776 8.446-5.626 16.86-11.231 25.361-15.943 10.399-5.765 20.848-10.147 31.507-11.566l.008-.001c3.578-.507 7.453 1.612 11.645 5.744 4.152 4.093 8.384 9.931 12.65 16.321a658.44 658.44 0 015.411 8.284c2.453 3.795 4.904 7.586 7.311 11.09 4.185 6.089 8.365 11.501 12.467 14.869 3.581 3.173 7.026 4.552 10.597 3.671l.028-.007.028-.008c31.7-9.831 61.479 5.995 83.89 32.003 6.854 7.983 13.681 17.826 17.795 33.351.015.164.048.316.076.43.04.162.091.331.133.47.045.15.08.269.106.371.008.035.014.061.017.08l.008.042v.109l.029.118c5.151 20.954 3.613 45.109-1.646 66.152-5.27 21.082-14.219 38.822-23.697 47.083-9.512 8.291-19.449 11.132-29.58 13.236-1.6.333-3.209.647-4.822.962-8.565 1.673-17.287 3.377-25.739 7.981-5.28 2.734-10.194 6.241-14.741 10.121l-.003.003c-12.433 10.683-22.727 25.313-31.848 40.827-5.927 10.082-11.391 20.596-16.625 30.669-2.811 5.408-5.555 10.689-8.269 15.707z" stroke="url(#AP8C8i4rkf)" stroke-width="2" stroke-miterlimit="10"/>
  <path d="M981.036 738.408l.006-.005c11.035-9.605 21.368-30.323 27.468-54.918 6.08-24.553 7.88-52.75 2.03-77.168l-.02-.115v-.118c0-.224-.05-.387-.14-.674v-.022c-.08-.263-.19-.623-.21-1.087-4.8-18.204-12.669-29.585-20.568-39.11-25.882-30.24-59.817-48.744-96.357-37.384-4.031 1.335-8.234-.959-12.069-4.44-4.617-4.136-9.337-10.68-14.073-18.038-2.735-4.249-5.513-8.83-8.293-13.416-2.027-3.344-4.056-6.69-6.07-9.911-4.809-7.69-9.576-14.731-14.238-19.702-4.71-5.021-9.055-7.649-13.035-7.145-12.208 1.801-24.189 7.185-36.12 14.221-9.556 5.636-19.024 12.296-28.526 18.98a1789.888 1789.888 0 01-7.122 4.993c-23.697 16.502-47.84 31.664-73.409 28.73h-.003c-19.436-2.29-37.866.091-56.38 3.69-5.93 1.153-11.88 2.433-17.876 3.724-12.673 2.727-25.549 5.499-38.873 7.199m413.878 201.716l-562.791-2.028v.006m562.791 2.022c-10.898 9.633-22.393 12.954-34.173 15.443-1.838.389-3.687.757-5.543 1.127-9.994 1.992-20.197 4.025-30.13 9.45-5.975 3.121-11.932 7.399-17.179 12.055m87.025-38.075l-69.374 26.902c-5.894 3.077-11.788 7.308-16.989 11.923M567.158 536.692l-.003.001-.126-.99.13.989h-.001zm0 0c-2.8.368-5.847-.298-9.021-1.629-3.18-1.334-6.56-3.367-10.054-5.828-6.314-4.446-13.115-10.372-19.904-16.288l-2.155-1.876c-7.53-6.547-14.98-12.888-21.787-17.142-3.401-2.125-6.598-3.701-9.527-4.528-2.924-.825-5.52-.887-7.777-.067l-.008.003c-11.935 4.225-21.682 13.618-29.711 26.356-8.029 12.738-14.293 28.744-19.285 46.053-9.315 32.295-14.157 68.942-17.863 96.998-.268 2.023-.529 4.002-.786 5.931-3.108 23.365-2.765 47.902-1.035 71.711m0 0c2.765 32.579 11.918 64.019 28.163 86.95 16.219 22.894 39.491 37.301 70.648 35.973m-98.811-122.923l98.811 122.923m0 0c31.49-1.536 57.809-2.732 82.033 11.676 10.522 6.225 20.665 15.157 30.437 27.544 8.215 10.233 15.715 21.328 23.139 32.312 1.535 2.27 3.066 4.535 4.599 6.786 8.97 13.171 18.03 25.896 28.367 36.598 14.193 14.592 31.545 26.925 50.767 23.556 10.666-1.878 20.508-7.829 29.61-16.384 9.101-8.554 17.413-19.666 25.018-31.768 10.453-16.636 19.498-35.017 27.411-51.099 3.617-7.351 6.997-14.221 10.168-20.225m-311.549-18.996L684.911 974.92c14.216 14.615 31.898 27.31 51.661 23.846 36.849-6.489 63.338-60.319 82.795-99.86 3.61-7.335 6.977-14.179 10.124-20.137 2.565-4.91 5.159-10.005 7.806-15.206 15.605-30.652 33.069-64.957 57.376-86.33m-66.068 101.072l.002-.003.881.465-.883-.461v-.001zm0 0c2.555-4.89 5.143-9.974 7.787-15.168 6.484-12.736 13.304-26.133 20.796-38.958 10.552-18.063 22.49-35.092 36.823-47.696m0 0a.002.002 0 01-.002.002l.664.748m-.662-.75l.002-.001.66.751" stroke="url(#AP8C8i4rkg)" stroke-width="2" stroke-miterlimit="10"/>
  <path d="M736.413 1032.01h-.012c-21.639 3.75-41.764-10.87-57.696-27.78-11.554-12.431-21.655-26.984-31.709-41.935a3418.082 3418.082 0 01-3.648-5.439c-8.834-13.185-17.76-26.509-27.694-38.716-11.149-13.913-22.331-24.002-34.246-31-26.997-16.332-56.438-15.137-92.086-13.601h-.01c-35.832 1.902-62.482-14.617-80.998-40.874-18.543-26.297-28.91-62.355-32.021-99.361l-.001-.003c-2.423-27.646-2.765-55.641 1.034-82.463l.001-.003c.542-3.91 1.097-8.007 1.672-12.259 4.214-31.128 9.551-70.556 19.406-105.633 5.6-19.931 12.645-38.401 21.737-53.115 9.093-14.716 20.183-25.595 33.849-30.491l.004-.002c2.503-.911 5.414-.792 8.717.22 3.304 1.013 6.928 2.898 10.792 5.417 7.732 5.042 16.246 12.501 24.86 20.179l2.045 1.824c7.913 7.063 15.856 14.152 23.211 19.448 3.997 2.879 7.857 5.255 11.478 6.814 3.612 1.557 7.065 2.335 10.217 1.918 15.386-1.97 30.201-5.242 44.771-8.46 6.81-1.505 13.567-2.997 20.304-4.339 21.199-4.223 42.31-6.988 64.686-4.124l.006.001c14.462 1.761 28.481-1.793 42.203-8.181 13.714-6.384 27.195-15.629 40.589-25.318 2.738-1.981 5.472-3.98 8.205-5.977 10.659-7.793 21.289-15.565 32.027-22.159 13.483-8.281 27.046-14.646 40.898-16.829 4.56-.684 9.459 2.369 14.717 8.231 5.204 5.803 10.492 14.056 15.821 23.068 2.176 3.678 4.363 7.492 6.55 11.306 3.143 5.48 6.286 10.961 9.396 16.044 5.272 8.617 10.55 16.264 15.771 21.08 4.25 4.316 8.765 6.542 13.444 5.244l.014-.004.014-.004c41.739-12.904 80.185 8.671 109.199 42.765 8.95 10.701 18.22 24.027 23.37 44.597l.02.087.04.081c.12.279.19.567.28.963l.01.03c.07.345.17.778.36 1.223 6.69 27.862 4.71 60.06-2.14 88.095-6.88 28.105-18.6 51.801-31.2 62.75v.005l-.01.005c-12.46 11.169-25.594 14.97-39.019 17.795-2.092.44-4.195.857-6.305 1.276-11.388 2.257-22.978 4.555-34.236 10.799-6.992 3.878-13.642 8.535-19.597 13.975-16.239 14.527-29.737 34.056-41.675 54.715-8.199 14.188-15.691 28.963-22.831 43.043-3.25 6.409-6.427 12.674-9.564 18.675-3.735 7.093-7.711 15.265-11.971 24.018-8.855 18.197-18.932 38.904-30.594 57.645-8.623 13.857-18.072 26.564-28.466 36.304-10.393 9.73-21.682 16.45-33.989 18.43z" stroke="url(#AP8C8i4rkh)" stroke-width="2" stroke-miterlimit="10"/>
  <path d="M671.781 1033.86h.004c17.651 19.58 40.212 36.14 64.979 32.38 13.866-2.17 26.583-9.71 38.282-20.65 11.698-10.93 22.328-25.23 32.012-40.81 13.361-21.508 24.85-45.34 34.86-66.106 4.518-9.374 8.736-18.123 12.688-25.751M671.781 1033.86l183.713-120.477M671.781 1033.86c-12.771-13.98-23.916-30.17-34.967-46.801-1.556-2.343-3.11-4.694-4.667-7.049-9.485-14.347-19.06-28.829-29.659-42.244m69.293 96.094l-209.46-145.091m392.285 24.154l.888.46m-.888-.46l-.001.002.889.458m-.888-.46c3.498-6.789 7.044-13.897 10.678-21.18 7.868-15.768 16.146-32.359 25.226-48.324 13.281-23.35 28.338-45.476 46.484-61.927l.008-.007c6.961-6.178 13.956-11.614 21.67-15.893M855.494 913.383c3.51-6.813 7.063-13.934 10.7-21.224 19.361-38.803 41.116-82.405 71.471-109.926 6.935-6.154 13.869-11.538 21.497-15.769m-.49-.872l.49.872m-.49-.872l.005-.003.485.875m-.49-.872c12.71-7.133 25.821-9.743 38.732-12.313 2.23-.444 4.456-.886 6.666-1.351 15.08-3.163 29.86-7.349 43.88-19.673m-88.788 34.209c12.56-7.049 25.498-9.626 38.411-12.198 17.387-3.463 34.727-6.918 51.037-21.263m0 0l-.66-.745v-.003m.66.748c28.43-25.383 52.7-107.305 37.8-170.765m-37.8 170.765l-.66-.75v.002m0 0c13.99-12.492 27.1-39.079 34.84-70.594 7.72-31.448 10.05-67.59 2.66-99.106m.96-.317l-.92.411c-.01-.031-.02-.063-.04-.094m.96-.317c-.18-.384-.26-.769-.35-1.153-.09-.385-.17-.769-.35-1.154-5.89-23.461-16.29-38.461-26.35-50.768m27.05 53.075l-.98.229a.28.28 0 01.02.088m0 0c-.19-.445-.28-.877-.36-1.221l-.01-.029c-.09-.397-.15-.685-.28-.963l-.04-.081-.02-.086c-5.84-23.264-16.15-38.131-26.15-50.375m0 0c0 .002 0 .003.01.005l.76-.642m-.77.637v-.005l.77-.632m-.77.637c-32.12-38.315-75.07-62.579-122.003-48.146m122.773 47.509c-32.24-38.461-75.582-63.075-123.081-48.46m0 0l.323.946-.015.005m-.308-.951c-4.508 1.538-9.015-1.154-13.869-5.77-8.921-8.677-18.167-25.43-27.46-42.267-14.184-25.698-28.476-51.593-41.883-49.269-27.826 4.802-54.481 24.896-81.07 44.941-33.045 24.911-65.988 49.746-100.954 45.057-33.882-4.602-65.159 2.354-97.091 9.455-16.102 3.581-32.37 7.199-49.222 9.391m411.549-11.538l.294.955.014-.004m0 0c-2.548.865-5.066.515-7.531-.62-2.445-1.126-4.879-3.04-7.335-5.376l-.008-.008c-5.74-5.583-11.562-14.39-17.387-24.302-3.399-5.784-6.833-12.005-10.266-18.225-2.445-4.429-4.89-8.858-7.32-13.126-5.872-10.311-11.692-19.741-17.402-26.349-2.855-3.303-5.643-5.854-8.354-7.461-2.702-1.601-5.273-2.233-7.746-1.805l-.001.001c-15.412 2.659-30.514 10.079-45.528 19.652-11.764 7.501-23.416 16.285-35.092 25.087a2029.185 2029.185 0 01-9.705 7.287c-14.911 11.108-29.91 21.666-45.154 28.911-15.253 7.25-30.817 11.216-46.848 9.066h-.002c-25.321-3.44-49.203-.387-73.087 4.365-7.838 1.559-15.689 3.305-23.593 5.063-16.128 3.586-32.474 7.221-49.369 9.418m0 0h.003l-.132-.991m.129.991l-.129-.991m.129.991c-3.504.466-7.355-.424-11.399-2.205-4.053-1.785-8.381-4.503-12.872-7.8-8.291-6.086-17.256-14.239-26.196-22.369l-2.212-2.011c-9.697-8.808-19.296-17.385-28.016-23.213-4.358-2.913-8.451-5.108-12.189-6.308-3.736-1.199-7.04-1.38-9.885-.372m102.64 63.287c-12.51 1.665-31.036-15.183-49.675-32.132-20.107-18.285-40.345-36.688-53.299-32.097m0 0l.335.942h-.001m-.334-.942c-58.561 20.816-74.25 138.423-84.256 213.431a3736.928 3736.928 0 01-2.076 15.409m86.332-228.84l.334.942m0 0c-15.394 5.472-27.848 17.789-38.031 34.47-10.181 16.678-18.039 37.636-24.268 60.236-10.793 39.162-16.653 83.083-21.298 117.906-.717 5.374-1.405 10.532-2.078 15.422m-.991-.136l.991.136m-.991-.136c-4.16 30.384-3.814 61.921-1.04 93.074 6.934 83.075 46.113 163.073 127.937 158.843M335.424 636.852l.991.136s0 0 0 0m0 0c-4.148 30.287-3.804 61.745-1.035 92.85v.005c3.459 41.431 14.953 82.008 35.708 111.671 20.726 29.622 50.67 48.351 91.182 46.256h.003c39.485-1.921 72.379-2.729 102.492 15.138l.004.002c12.95 7.765 25.521 19.008 37.719 34.856m-140.167-48.997c39.526-1.923 72.117-2.693 101.934 14.999 12.828 7.692 25.31 18.846 37.445 34.614 10.572 13.38 20.122 27.824 29.609 42.174 12.602 19.062 25.096 37.964 39.734 53.974 17.682 19.62 40.565 36.54 65.875 32.7L462.321 888.769zm140.167 48.997a.014.014 0 01-.003-.004l-.784.62.792-.609-.005-.007z" stroke="url(#AP8C8i4rki)" stroke-width="2" stroke-miterlimit="10"/>
  <path d="M664.855 1063.87h.002c19.389 21.89 44.724 40.74 71.911 36.6h.006c15.509-2.27 29.697-10.58 42.716-22.69 13.019-12.12 24.818-27.99 35.542-45.31 14.801-23.9 27.48-50.403 38.49-73.417 4.963-10.374 9.586-20.038 13.912-28.436h0c4.069-7.884 8.193-16.16 12.421-24.646 8.533-17.129 17.494-35.113 27.296-52.453 14.667-25.946 31.284-50.571 51.335-68.946l.004-.003c7.681-6.971 15.709-12.778 24.08-17.808l.011-.007.011-.006c14.029-7.947 28.518-10.82 42.818-13.655 2.49-.493 4.97-.985 7.44-1.502 16.72-3.499 33.15-8.166 48.73-22.027 15.55-13.836 30.05-43.402 38.57-78.382 8.5-34.911 11-74.996 2.75-109.782-.2-.477-.3-1.017-.37-1.431l-.01-.053c-.09-.515-.16-.863-.27-1.112l-.04-.081-.02-.086c-6.54-25.963-17.89-42.753-28.93-56.141-35.59-42.555-83.05-69.507-134.493-53.531-5.439 1.723-11.027-1.366-16.272-6.796l-.001-.001.719-.695c-9.71-9.861-19.744-28.64-29.826-47.506-15.475-28.961-31.061-58.13-45.758-55.568L664.855 1063.87zm0 0c-13.988-15.71-26.174-33.73-38.223-52.05l-3.98-6.06c-10.7-16.318-21.437-32.691-33.344-47.616-13.577-17.376-27.186-29.774-41.528-38.311-32.886-19.791-68.895-19.37-112.555-17.064m229.63 161.101l202.949-744.487c-17.056 3.043-33.739 11.445-50.302 22.262-12.956 8.461-25.781 18.358-38.625 28.271a2250.24 2250.24 0 01-10.755 8.267c-16.428 12.525-32.944 24.419-49.739 32.573-16.803 8.159-33.954 12.609-51.637 10.169h-.004c-28.437-4.015-55.004-.579-81.529 4.797-8.628 1.749-17.264 3.706-25.962 5.678-17.988 4.077-36.235 8.213-55.194 10.679-3.855.515-8.104-.485-12.58-2.491-4.485-2.011-9.282-5.069-14.265-8.78-9.17-6.829-19.092-15.966-28.999-25.088l-2.561-2.357c-10.781-9.914-21.463-19.572-31.168-26.133-4.851-3.279-9.413-5.753-13.581-7.103-4.167-1.35-7.864-1.554-11.052-.405l-.007.003c-17.122 6.048-30.92 19.803-42.16 38.442-11.238 18.637-19.866 42.071-26.68 67.315-11.547 42.779-17.846 90.589-22.878 128.783-.908 6.89-1.774 13.467-2.623 19.645-4.495 33.751-4.151 68.673-1.381 103.243 3.805 46.048 16.428 91.143 39.435 124.121 22.979 32.936 56.301 53.782 101.668 51.495m0 0s0 0 0 0l.053.999-.051-.999h-.002z" stroke="url(#AP8C8i4rkj)" stroke-width="2" stroke-miterlimit="10"/>
  <path d="M657.928 1093.88h.005c21.113 24.57 48.883 45.36 79.196 41.2 17.065-2.37 32.681-11.46 47.009-24.79 14.33-13.33 27.32-30.84 39.128-49.94 16.117-26.06 29.953-54.93 41.98-80.029 5.615-11.717 10.835-22.611 15.709-32.01 4.353-8.529 8.768-17.492 13.3-26.692 9.336-18.952 19.168-38.909 29.97-58.147 16.055-28.591 34.32-55.719 56.454-75.826 8.362-7.729 17.092-14.318 26.541-19.366 15.39-8.783 31.31-11.98 47.05-15.14 2.69-.54 5.37-1.079 8.05-1.644 18.37-3.884 36.45-9.032 53.59-24.24 17.1-15.181 32.99-47.726 42.33-86.217 9.34-38.439 12.09-82.587 3.13-120.849-.18-.618-.28-1.136-.36-1.605v-.014c-.09-.481-.17-.912-.33-1.428v-.022l-.01-.021c-7.23-28.659-19.62-46.988-31.69-61.528-38.73-46.404-90.69-76.429-147.333-58.912l-.014.004-.014.004c-6.127 1.699-12.047-1.772-17.978-7.963l-.001-.001.723-.692c-10.521-10.912-21.419-31.8-32.375-52.799-16.846-32.289-33.83-64.843-49.797-61.813-33.615 6.158-65.654 31.411-97.579 56.575-39.857 31.415-79.538 62.692-121.89 56.499-41.58-6.083-79.547 2.53-118.265 11.314-20.041 4.546-40.284 9.138-61.333 11.762-15.171 2.034-37.799-19.053-60.596-40.299-24.612-22.937-49.421-46.059-65.261-40.468l300.661 765.097zm0 0c-15.203-17.44-28.343-37.29-41.39-57.44l-3.337-5.16c-11.92-18.44-23.902-36.976-37.414-53.903-14.963-18.915-29.956-32.464-45.332-41.769-35.665-22.107-74.802-21.683-122.624-18.992h-.001c-49.87 2.861-86.484-20.096-111.717-56.398-25.262-36.344-39.098-86.056-43.25-136.527v-.001c-3.117-37.651-3.806-76.032 1.381-113.624h0c.977-7.124 1.974-14.742 3.021-22.744 5.461-41.726 12.286-93.87 24.778-140.64 7.443-27.865 16.883-53.762 29.211-74.376 12.329-20.617 27.492-35.86 46.347-42.581m300.327 764.155L357.601 329.725m0 0c3.532-1.246 7.623-.979 12.223.558 4.601 1.538 9.632 4.323 14.977 7.996 10.692 7.348 22.459 18.124 34.323 29.168l2.732 2.544c10.933 10.19 21.877 20.389 31.981 28.008 5.475 4.129 10.741 7.528 15.658 9.764 4.907 2.23 9.553 3.341 13.758 2.779l-125.652-80.817z" stroke="url(#AP8C8i4rkk)" stroke-width="2" stroke-miterlimit="10"/>
  <path d="M651.002 1123.88h-.003c-16.417-19.17-30.599-40.84-44.642-62.86-1.437-2.26-2.872-4.52-4.309-6.77-12.589-19.79-25.238-39.68-39.429-58.019l-.003-.004c-16.005-20.456-32.042-35.163-48.813-45.24-39.125-23.638-81.027-23.217-133.011-20.526l-.004.001c-54.725 3.054-94.72-22.116-122.206-61.782-27.516-39.709-42.479-93.94-46.978-148.835v-.002c-3.463-41.104-3.807-82.95 1.728-124.01 1.099-8.052 2.219-16.689 3.397-25.777 5.893-45.445 13.245-102.142 26.699-153.039 8.072-30.533 18.325-58.918 31.742-81.497 13.418-22.581 29.945-39.265 50.53-46.562 3.877-1.342 8.362-1.018 13.395.698 5.034 1.716 10.534 4.798 16.372 8.85 11.679 8.105 24.53 19.963 37.477 32.112l3.111 2.922c11.89 11.171 23.78 22.343 34.753 30.719 5.968 4.555 11.701 8.312 17.049 10.799 5.339 2.482 10.381 3.739 14.933 3.178l.008-.001c22.543-2.965 44.271-7.965 65.726-12.902 10.592-2.437 21.117-4.859 31.641-7.013 31.897-6.53 63.92-10.638 98.247-5.472h.002c20.901 3.118 41.179-2.227 61.063-12.155 19.873-9.924 39.424-24.464 58.886-39.826 4.422-3.49 8.838-7.022 13.253-10.553 15.047-12.034 30.083-24.059 45.274-34.386 19.642-13.353 39.445-23.794 59.705-27.699 3.229-.61 6.567.271 10.056 2.491 3.499 2.227 7.083 5.763 10.737 10.325 7.307 9.124 14.734 22.148 22.209 36.378 3.167 6.026 6.347 12.281 9.527 18.534 4.299 8.455 8.598 16.907 12.858 24.792 7.414 13.721 14.81 25.912 22.098 33.708 6.271 6.954 12.906 10.859 19.42 8.74 61.83-19.051 118.31 13.667 160.15 64.297 13.09 16.062 26.51 35.902 34.44 67.184.02 1.256.39 2.481.71 3.554l.01.036c9.83 41.722 6.82 89.909-3.34 131.858-10.17 42.002-27.44 77.528-45.94 94.055v.001c-18.69 16.745-38.33 22.373-58.3 26.593-2.95.623-5.91 1.216-8.88 1.81-17.08 3.42-34.38 6.884-51.21 16.469-10.49 5.818-19.92 13.177-28.96 21.28l-.01.005v.006c-24.039 22.221-43.863 51.943-61.304 83.177-11.504 20.603-22.001 41.921-31.988 62.202-5.144 10.448-10.153 20.621-15.095 30.279-5.096 9.937-10.56 21.408-16.437 33.744-13.174 27.653-28.42 59.663-46.235 88.493-12.87 20.82-27.042 39.92-42.677 54.45-15.634 14.53-32.68 24.44-51.305 27h-.001c-32.729 4.54-63.27-18.92-86.126-45.81zm-.762.65c22.883 26.92 53.741 50.77 87.025 46.15l-87.025-46.15z" stroke="url(#AP8C8i4rkl)" stroke-width="2" stroke-miterlimit="10"/>
  <path d="M644.071 1153.89h-.001c-17.634-20.91-32.857-44.32-47.984-68.02l-3.442-5.4c-13.968-21.92-28.004-43.94-43.897-64.24l-.003-.01c-17.394-21.994-34.466-37.463-52.612-48.689l-.005-.003c-41.9-25.563-86.92-25.528-143.075-22.452h-.007c-59.401 3.629-102.687-23.653-132.384-66.683-29.726-43.074-45.817-101.921-50.663-161.24v-.003c-3.81-44.956-4.499-90.259 1.728-134.774l-.991-.138.991.138c1.357-9.719 2.736-20.241 4.192-31.359 6.36-48.551 14.207-108.453 28.332-162.415 8.679-33.154 19.713-64.003 34.192-88.559 14.481-24.559 32.352-42.732 54.671-50.7 4.177-1.485 9.022-1.138 14.463.73 5.442 1.867 11.396 5.227 17.719 9.646 12.649 8.838 26.594 21.778 40.647 35.033a9076.24 9076.24 0 013.326 3.139c12.924 12.206 25.851 24.415 37.772 33.566 6.474 4.97 12.688 9.067 18.477 11.777 5.779 2.707 11.223 4.074 16.125 3.464l.002-.001c24.678-3.128 48.479-8.602 72.009-14.013 11.225-2.582 22.388-5.149 33.554-7.441 34.627-7.106 69.422-11.598 106.693-5.856 22.553 3.504 44.417-2.275 65.852-13.094 21.424-10.814 42.492-26.702 63.471-43.507 4.804-3.848 9.603-7.744 14.401-11.639 16.183-13.138 32.359-26.269 48.709-37.554 21.191-14.626 42.575-26.075 64.479-30.363 3.438-.657 6.999.314 10.725 2.744 3.737 2.437 7.567 6.298 11.474 11.272 7.813 9.948 15.771 24.139 23.789 39.643 3.401 6.577 6.818 13.401 10.235 20.226 4.61 9.207 9.22 18.414 13.791 27.012 7.964 14.982 15.902 28.305 23.714 36.868v.008l.01.007c6.94 7.314 13.57 11.603 20.77 9.502l.01-.004c67.04-20.593 127.68 15.196 172.99 69.682 14.48 17.594 28.94 39.356 37.56 72.951.03 1.256.39 2.482.72 3.555l.01.032c10.52 45.378 7.24 97.508-3.74 142.87-10.99 45.413-29.65 83.827-49.71 101.893-20.08 18.089-41.36 24.198-63.03 28.803-3.17.673-6.35 1.315-9.54 1.958-18.55 3.745-37.34 7.536-55.54 17.959l-.01.006c-11.16 6.58-21.27 14.315-31.02 23.199l-.01.002c-26.116 23.954-47.588 56.178-66.416 90.057-12.51 22.51-23.882 45.808-34.675 67.921-5.444 11.153-10.74 22.003-15.961 32.3-5.468 10.703-11.336 23.084-17.654 36.414-14.175 29.91-30.614 64.59-49.873 95.82-13.91 22.56-29.251 43.24-46.207 58.95-16.954 15.7-35.472 26.39-55.742 29.04h-.006c-35.846 4.93-68.814-20.83-93.405-50.03zM441.519 345.711v.001-.001z" stroke="url(#AP8C8i4rkm)" stroke-width="2" stroke-miterlimit="10"/>
  <path d="M637.143 1183.89h-.003c-18.85-22.64-35.113-47.87-51.369-73.36-.663-1.04-1.325-2.07-1.987-3.11-15.585-24.45-31.258-49.03-49.253-71.58-18.441-23.93-37.249-40.548-56.424-52.537l-.006-.004c-44.675-27.489-92.819-27.453-153.136-23.992h-.002c-63.908 3.822-110.489-25.671-142.439-72.067-31.981-46.439-49.286-109.805-54.478-173.547-3.811-48.42-4.5-97.187 2.074-145.165v-.001c1.379-10.15 2.78-21.12 4.259-32.705 6.712-52.564 15.041-117.787 30.26-176.5 9.285-35.822 21.121-69.159 36.684-95.68 15.565-26.524 34.801-46.137 58.851-54.682 4.521-1.58 9.76-1.169 15.633.886 5.875 2.055 12.298 5.726 19.114 10.538 13.636 9.626 28.665 23.683 43.801 38.068l3.499 3.328c13.949 13.273 27.897 26.544 40.752 36.485 6.967 5.388 13.649 9.826 19.87 12.762 6.211 2.931 12.053 4.407 17.304 3.749h.002c26.556-3.389 52.118-9.345 77.394-15.233 12.059-2.81 24.052-5.604 36.058-8.097 37.226-7.731 74.707-12.608 115.097-6.289 24.202 3.793 47.671-2.444 70.682-14.141 23.001-11.692 45.619-28.878 68.137-47.078a2965.578 2965.578 0 0015.852-12.932c17.235-14.126 34.459-28.243 51.859-40.408 22.725-15.888 45.648-28.37 69.112-33.137 3.739-.75 7.596.286 11.613 2.909 4.028 2.631 8.146 6.813 12.337 12.204 8.382 10.782 16.893 26.186 25.452 43.012 3.662 7.199 7.339 14.67 11.013 22.138 4.887 9.929 9.77 19.853 14.611 29.12 8.494 16.25 16.944 30.679 25.274 39.917 7.33 8.127 14.64 12.381 22.16 10.294l.01-.004.02-.004c71.54-22.13 137.03 16.349 185.46 75.064l.01.002c15.88 19.152 31.39 42.48 40.36 78.83l.01.024v.024c.17.554.34 1.206.51 1.885v.007c.17.655.35 1.333.52 1.924 11.39 48.839 7.86 105.006-3.95 153.878-11.81 48.924-31.86 90.319-53.3 109.731l.67.741-.68-.74c-21.64 19.626-44.57 26.215-67.88 31.156-3.42.726-6.86 1.417-10.3 2.109-19.95 4.01-40.12 8.063-59.63 19.3l-.01.004c-11.86 6.965-23.01 15.471-33.46 25.128v.004c-27.85 26.067-50.798 60.885-70.968 97.407-13.135 23.782-25.123 48.345-36.526 71.707-6.099 12.497-12.031 24.651-17.881 36.158h-.001c-5.691 11.24-11.803 24.19-18.381 38.13-15.318 32.46-33.165 70.29-54.128 104.29-14.971 24.29-31.493 46.56-49.754 63.47-18.26 16.91-38.207 28.41-60.037 31.26-38.277 4.93-74.023-22.76-100.341-54.65z" stroke="url(#AP8C8i4rkn)" stroke-width="2" stroke-miterlimit="10"/>
  <path d="M630.21 1213.89h-.001c-20.063-24.36-37.28-51.42-54.402-78.78-1.127-1.8-2.254-3.61-3.381-5.41-15.982-25.57-32.039-51.25-50.372-75.01h-.002c-19.825-25.47-39.674-43.24-60.244-56.005l-.003-.002c-47.793-29.411-99.399-29.761-163.539-25.915h-.001c-68.764 4.206-118.723-27.308-152.926-76.971-34.234-49.708-52.666-117.592-58.205-185.95-4.157-51.495-4.847-104.109 2.074-155.551 1.507-11.094 3.037-23.119 4.655-35.838 7.139-56.119 15.995-125.737 32.161-188.464 9.914-38.466 22.563-74.279 39.214-102.759 16.655-28.484 37.256-49.537 63.038-58.659h.001c4.866-1.724 10.5-1.283 16.805.934 6.306 2.217 13.197 6.182 20.507 11.378 14.621 10.394 30.734 25.581 46.954 41.12l3.837 3.679c14.92 14.311 29.828 28.612 43.566 39.331 7.46 5.82 14.61 10.613 21.264 13.784 6.643 3.166 12.881 4.758 18.481 4.051h.002c28.264-3.628 55.507-9.965 82.465-16.236 13.098-3.047 26.129-6.079 39.177-8.776 39.956-8.259 80.21-13.425 123.547-6.53h.001c25.764 4.083 50.752-2.612 75.264-15.188 24.503-12.57 48.605-31.055 72.618-50.648 5.665-4.622 11.324-9.306 16.983-13.989 18.359-15.193 36.717-30.385 55.273-43.498 24.27-17.15 48.774-30.664 73.886-35.912 3.948-.795 8.027.332 12.281 3.165 4.266 2.84 8.63 7.348 13.074 13.152 8.886 11.606 17.93 28.176 27.031 46.276 3.895 7.748 7.807 15.788 11.717 23.825 5.2 10.684 10.39 21.363 15.55 31.346 9.03 17.505 18.03 33.063 26.88 43.069v.007c3.86 4.276 7.77 7.643 11.69 9.644 3.94 2.01 7.94 2.66 11.89 1.409 76.75-23.666 146.74 17.506 198.29 80.447l.01.007c16.92 20.302 33.47 45.166 43.13 84.205.18.779.35 1.46.52 2.126v.006c.18.674.35 1.334.52 2.086v.005c12.09 52.31 8.38 112.531-4.16 164.923-12.55 52.434-33.9 96.808-56.91 117.564v.001c-23.2 20.972-47.77 27.946-72.73 33.224-3.5.739-7 1.445-10.51 2.152-21.53 4.336-43.27 8.716-64.29 21.04l-.01.005c-12.89 7.728-24.73 16.616-35.88 27.049-29.93 27.991-54.52 65.309-76.08 104.428-14.219 25.802-27.147 52.444-39.42 77.733-6.326 13.036-12.477 25.71-18.541 37.73h-.001c-5.993 11.92-12.428 25.65-19.355 40.43-16.372 34.92-35.49 75.71-58.007 112.33-16.011 26.04-33.703 49.91-53.286 68-19.581 18.09-41 30.36-64.476 33.31h-.003c-41.395 5.31-79.567-24.68-107.621-58.88zm107.748 59.87c80.896-10.15 136.902-129.63 176.582-214.28 6.918-14.75 13.34-28.45 19.312-40.33 6.078-12.05 12.236-24.736 18.565-37.779 30.859-63.591 65.783-135.555 115.263-181.831 11.1-10.384 22.89-19.23 35.71-26.922L737.958 1273.76z" stroke="url(#AP8C8i4rko)" stroke-width="2" stroke-miterlimit="10"/>
  <path d="M1088.49 802.274c-31.83 29.722-57.98 69.54-80.93 111.301-14.879 27.085-28.441 55.048-41.332 81.626-6.976 14.379-13.755 28.359-20.44 41.579h-.002c-6.289 12.53-13.049 26.96-20.329 42.5-17.457 37.27-37.905 80.92-62.017 120.11-17.073 27.75-35.946 53.19-56.834 72.48-20.885 19.29-43.733 32.37-68.768 35.51m350.652-505.106l.01-.003.68.728-.69-.724v-.001zm0 0c11.84-11.197 24.38-20.863 37.98-28.601m0 0v.004l.5.863-.49-.868-.01.001zm0 0c22.46-13.118 45.58-17.764 68.44-22.359 3.79-.761 7.57-1.521 11.34-2.318 26.56-5.614 52.69-13.069 77.46-35.578v-.004c24.56-22.102 47.3-69.454 60.67-125.399 13.37-55.902 17.34-120.162 4.55-175.934v-.003c-.35-1.551-.69-3.051-1.02-4.163l-.01-.024v-.023c-10.36-41.736-27.95-68.142-45.92-89.988-55.02-66.794-129.18-111.038-211.12-85.831l-.01.003-.01.002c-8.59 2.486-16.94-2.57-24.96-12.235m0 0c0 .004.01.007.01.011l.75-.66m-.76.649c-9.45-10.777-19.01-27.484-28.57-46.269-5.53-10.849-11.09-22.451-16.65-34.046-4.06-8.48-8.12-16.955-12.16-25.128-9.604-19.398-19.135-37.146-28.515-49.556-4.691-6.207-9.303-11.022-13.818-14.046-4.504-3.016-8.835-4.201-13.039-3.313h-.001c-26.758 5.631-52.845 20.154-78.665 38.579-19.719 14.071-39.223 30.372-58.721 46.669-6.038 5.046-12.076 10.092-18.119 15.072-25.529 21.035-51.149 40.867-77.201 54.327-26.062 13.466-52.635 20.595-80.048 16.126-46.283-7.471-89.222-1.921-131.821 6.963-13.9 2.899-27.778 6.157-41.726 9.432-28.746 6.748-57.791 13.567-87.935 17.455l-.002.001c-5.948.755-12.583-.946-19.658-4.336-7.084-3.395-14.702-8.528-22.653-14.763-14.658-11.497-30.569-26.84-46.487-42.19-1.344-1.296-2.687-2.592-4.031-3.885-17.281-16.645-34.445-32.913-50.004-44.041-7.778-5.563-15.109-9.806-21.813-12.175-6.704-2.368-12.692-2.831-17.858-.966l-.004.001c-27.516 9.794-49.462 32.337-67.178 62.804-17.714 30.463-31.143 68.752-41.664 109.863-16.878 65.954-26.234 139.007-33.842 198.413-1.878 14.662-3.65 28.493-5.401 41.181v.001c-7.615 54.901-6.925 110.975-2.421 165.931v.001c5.886 72.782 25.445 145.186 61.889 198.259 36.413 53.027 89.667 86.752 163.109 82.354 68.307-4.231 123.03-3.494 173.594 27.453h.003c21.96 13.53 42.848 32.47 63.71 59.46m557.7-855.631c0-.003 0-.007-.01-.01l.77-.639m0 0c7.98 9.615 15.95 14.231 23.93 11.923 82.51-25.384 157.06 19.23 212.18 86.152 18.03 21.922 35.72 48.46 46.12 90.382.34 1.154.69 2.693 1.04 4.231 25.65 111.92-15.95 257.686-65.53 302.3-28.52 25.921-58.84 32.018-89.3 38.142-22.86 4.598-45.81 9.211-68.11 22.241-13.52 7.692-26 17.307-37.79 28.461-52.3 48.823-89.29 125.086-122.034 192.598-6.979 14.39-13.765 28.38-20.466 41.63-6.268 12.49-13.015 26.89-20.287 42.42-42.204 90.09-102.074 217.9-188.435 228.72-44.379 5.39-85.291-26.92-115.455-63.84-21.857-26.81-40.526-56.55-59.182-86.26-17.744-28.27-35.476-56.51-55.927-82.2m559.246-856.9c-14.76-16.833-29.9-48.437-45.06-80.073-23.287-48.597-46.609-97.273-68.659-92.614-47.546 10.006-92.8 47.83-137.843 85.476-57.108 47.731-113.877 95.179-174.546 85.288-61.658-9.953-117.362 3.125-174.001 16.423-28.716 6.742-57.673 13.541-87.768 17.423-21.828 2.772-54.788-29.011-87.987-61.026-35.88-34.6-72.04-69.469-94.731-61.279C95.761 164.483 69.794 367.244 52.701 500.712c-1.877 14.654-3.647 28.472-5.396 41.142-7.628 54.999-6.934 111.152-2.427 166.15 11.788 145.766 78.357 290.377 226.057 281.531 68.303-4.23 122.737-3.461 173.01 27.305 21.843 13.46 42.646 32.31 63.449 59.23m0 0l.791-.61c-.002 0-.003 0-.005-.01m-.786.62l.786-.62m0 0c20.485 25.73 38.241 54.02 55.975 82.26l1.38 2.2c18.207 29 36.465 57.89 57.743 83.99m0 0h-.001l-.759.62.76-.62zm0 0c30.134 36.88 70.736 68.8 114.56 63.48m0 0h-.004l.123.99-.119-.99z" stroke="url(#AP8C8i4rkp)" stroke-width="2" stroke-miterlimit="10"/>
  <path d="M4.616 704.075l-.997.083.997-.083c-4.85-58.414-5.54-118.336 2.421-177.086 1.892-13.679 3.804-28.641 5.835-44.532 8.027-62.81 17.907-140.125 35.706-210.013 11.149-43.779 25.39-84.58 44.194-117.032 18.806-32.456 42.116-56.464 71.363-66.834l.004-.002c5.467-1.96 11.816-1.433 18.929 1.123 7.113 2.557 14.899 7.111 23.162 13.068 16.53 11.915 34.789 29.301 53.176 47.076l4.065 3.933c17.013 16.464 34.026 32.929 49.687 45.249 8.457 6.653 16.555 12.127 24.081 15.747 7.515 3.614 14.552 5.425 20.848 4.621h.002c31.854-4.127 62.582-11.329 93.01-18.46 14.987-3.512 29.9-7.008 44.84-10.11 45.329-9.413 91.042-15.251 140.271-7.204 29.063 4.759 57.24-2.853 84.88-17.226 27.629-14.368 54.797-35.535 81.866-57.989 6.447-5.348 12.888-10.769 19.329-16.19 20.63-17.36 41.261-34.724 62.11-49.715 27.354-19.669 54.979-35.176 83.296-41.19l.001-.001c5.419-1.158 11.052.987 16.952 5.946 5.896 4.956 11.91 12.606 18.016 22.113 12.07 18.812 24.33 44.628 36.61 70.485l.38.808c12.38 26.084 24.79 52.139 36.99 70.802 6.1 9.327 12.19 16.883 18.27 21.675 6.08 4.797 12.28 6.93 18.48 5.068h0c86.8-26.364 165.47 20.575 223.61 91.597v.004c19 22.994 37.64 51.323 48.69 95.755v.001c14.86 59.418 11.07 128.575-3.08 188.9-14.16 60.366-38.63 111.661-64.92 135.493-26.33 23.857-54.11 31.792-82.32 37.791-3.97.845-7.96 1.652-11.95 2.46-24.3 4.921-48.86 9.893-72.68 23.855-45.99 26.86-81.98 73.19-112.43 124.582-21.49 36.264-40.271 75.139-57.86 111.557-7.333 15.18-14.459 29.93-21.488 43.88l-.001.01c-6.646 13.27-13.801 28.57-21.514 45.08-18.497 39.57-40.205 86.02-65.816 127.72-18.135 29.53-38.189 56.61-60.382 77.11-22.192 20.5-46.47 34.37-73.064 37.61-46.942 5.7-89.972-28.52-121.84-67.71l-.776.63.775-.63c-22.491-27.64-41.789-58.26-60.992-89.08-.874-1.4-1.748-2.81-2.622-4.21-18.315-29.41-36.672-58.89-57.722-85.92l-.789.61.789-.61c-36.684-47.06-73.428-71.81-114.095-83.95-40.622-12.123-85.073-11.627-137.084-8.36-78.122 4.78-134.668-31.15-173.336-87.591-38.699-56.487-59.471-133.507-65.877-210.714z" stroke="url(#AP8C8i4rkq)" stroke-width="2" stroke-miterlimit="10"/>
  <defs>
    <linearGradient id="AP8C8i4rka" x1="725.23" y1="721.974" x2="725.23" y2="794.98" gradientUnits="userSpaceOnUse">
      <stop offset=".688" stop-color="#BF1922"/>
      <stop offset="1" stop-color="#FF3A7B" stop-opacity="0"/>
    </linearGradient>
    <linearGradient id="AP8C8i4rkb" x1="723.261" y1="680.648" x2="723.261" y2="827.7" gradientUnits="userSpaceOnUse">
      <stop offset=".688" stop-color="#BF1922"/>
      <stop offset="1" stop-color="#FF3A7B" stop-opacity="0"/>
    </linearGradient>
    <linearGradient id="AP8C8i4rkc" x1="721.599" y1="635.307" x2="721.599" y2="861.631" gradientUnits="userSpaceOnUse">
      <stop offset=".688" stop-color="#BF1922"/>
      <stop offset="1" stop-color="#FF3A7B" stop-opacity="0"/>
    </linearGradient>
    <linearGradient id="AP8C8i4rkd" x1="720.127" y1="590.299" x2="720.127" y2="895.981" gradientUnits="userSpaceOnUse">
      <stop offset=".688" stop-color="#BF1922"/>
      <stop offset="1" stop-color="#FF3A7B" stop-opacity="0"/>
    </linearGradient>
    <linearGradient id="AP8C8i4rke" x1="718.117" y1="544.884" x2="718.117" y2="930.201" gradientUnits="userSpaceOnUse">
      <stop offset=".688" stop-color="#BF1922"/>
      <stop offset="1" stop-color="#FF3A7B" stop-opacity="0"/>
    </linearGradient>
    <linearGradient id="AP8C8i4rkf" x1="716.522" y1="499.464" x2="716.522" y2="964.714" gradientUnits="userSpaceOnUse">
      <stop offset=".688" stop-color="#BF1922"/>
      <stop offset="1" stop-color="#FF3A7B" stop-opacity="0"/>
    </linearGradient>
    <linearGradient id="AP8C8i4rkg" x1="715.526" y1="454.094" x2="715.526" y2="999.341" gradientUnits="userSpaceOnUse">
      <stop offset=".688" stop-color="#BF1922"/>
      <stop offset="1" stop-color="#FF3A7B" stop-opacity="0"/>
    </linearGradient>
    <linearGradient id="AP8C8i4rkh" x1="713.301" y1="408.674" x2="713.301" y2="1033.6" gradientUnits="userSpaceOnUse">
      <stop offset=".688" stop-color="#BF1922"/>
      <stop offset="1" stop-color="#FF3A7B" stop-opacity="0"/>
    </linearGradient>
    <linearGradient id="AP8C8i4rki" x1="711.618" y1="363.252" x2="711.618" y2="1067.77" gradientUnits="userSpaceOnUse">
      <stop offset=".688" stop-color="#BF1922"/>
      <stop offset="1" stop-color="#FF3A7B" stop-opacity="0"/>
    </linearGradient>
    <linearGradient id="AP8C8i4rkj" x1="710.016" y1="318.241" x2="710.016" y2="1102.04" gradientUnits="userSpaceOnUse">
      <stop offset=".688" stop-color="#BF1922"/>
      <stop offset="1" stop-color="#FF3A7B" stop-opacity="0"/>
    </linearGradient>
    <linearGradient id="AP8C8i4rkk" x1="708.638" y1="273.204" x2="708.638" y2="1136.61" gradientUnits="userSpaceOnUse">
      <stop offset=".688" stop-color="#BF1922"/>
      <stop offset="1" stop-color="#FF3A7B" stop-opacity="0"/>
    </linearGradient>
    <linearGradient id="AP8C8i4rkl" x1="706.949" y1="227.04" x2="706.949" y2="1171.26" gradientUnits="userSpaceOnUse">
      <stop offset=".688" stop-color="#BF1922"/>
      <stop offset="1" stop-color="#FF3A7B" stop-opacity="0"/>
    </linearGradient>
    <linearGradient id="AP8C8i4rkm" x1="705.051" y1="182.029" x2="705.051" y2="1205.53" gradientUnits="userSpaceOnUse">
      <stop offset=".688" stop-color="#BF1922"/>
      <stop offset="1" stop-color="#FF3A7B" stop-opacity="0"/>
    </linearGradient>
    <linearGradient id="AP8C8i4rkn" x1="702.91" y1="136.222" x2="702.91" y2="1240.11" gradientUnits="userSpaceOnUse">
      <stop offset=".688" stop-color="#BF1922"/>
      <stop offset="1" stop-color="#FF3A7B" stop-opacity="0"/>
    </linearGradient>
    <linearGradient id="AP8C8i4rko" x1="701.44" y1="90.827" x2="701.44" y2="1274.38" gradientUnits="userSpaceOnUse">
      <stop offset=".688" stop-color="#BF1922"/>
      <stop offset="1" stop-color="#FF3A7B" stop-opacity="0"/>
    </linearGradient>
    <linearGradient id="AP8C8i4rkp" x1="699.62" y1="46.173" x2="699.62" y2="1308.96" gradientUnits="userSpaceOnUse">
      <stop offset=".688" stop-color="#BF1922"/>
      <stop offset="1" stop-color="#FF3A7B" stop-opacity="0"/>
    </linearGradient>
    <linearGradient id="AP8C8i4rkq" x1="698.089" y1="0" x2="698.089" y2="1343.23" gradientUnits="userSpaceOnUse">
      <stop offset=".688" stop-color="#BF1922"/>
      <stop offset="1" stop-color="#FF3A7B" stop-opacity="0"/>
    </linearGradient>
  </defs>
</svg>
