<svg xmlns="http://www.w3.org/2000/svg" fill="none" viewBox="0 0 24 24">
  <path d="M23.999 12.074c0-6.669-5.372-12.074-12-12.074C5.372 0 0 5.405 0 12.074c0 6.025 4.388 11.02 10.124 11.925v-8.436H7.078v-3.49h3.046v-2.66c0-3.026 1.792-4.697 4.533-4.697 1.313 0 2.686.235 2.686.235v2.972H15.83c-1.49 0-1.955.93-1.955 1.885v2.266h3.328l-.532 3.49h-2.796V24C19.612 23.095 24 18.1 24 12.074h-.001z" fill="url(#TjnETUKODia)"/>
  <defs>
    <linearGradient id="TjnETUKODia" x1="-3.478" y1="0" x2="31.9" y2="28.217" gradientUnits="userSpaceOnUse">
      <stop stop-color="#fff"/>
      <stop offset="1" stop-color="#fff" stop-opacity="0"/>
    </linearGradient>
  </defs>
</svg>
