<svg xmlns="http://www.w3.org/2000/svg" fill="none" viewBox="0 0 24 30">
  <path d="M5.948 28.998a6.623 6.623 0 01-1.531-1.416c-.472-.57-.91-1.17-1.31-1.79a17.317 17.317 0 01-2.192-4.477C.299 19.465 0 17.695 0 15.962c0-1.933.419-3.62 1.234-5.036A7.117 7.117 0 013.819 8.24a6.895 6.895 0 013.497-1.035c.431 0 .9.062 1.392.185.357.099.788.259 1.317.456.677.258 1.047.418 1.17.455.394.148.726.21.985.21.197 0 .48-.062.794-.16.178-.062.517-.173.997-.382.476-.173.852-.32 1.152-.431.455-.136.896-.259 1.292-.32.48-.074.957-.099 1.414-.062a8.384 8.384 0 012.389.517c1.255.505 2.269 1.293 3.025 2.414-.32.197-.616.426-.893.677a7.538 7.538 0 00-1.514 1.853 6.28 6.28 0 00-.793 3.103c.018 1.333.357 2.505 1.034 3.521a6.563 6.563 0 001.889 1.891c.381.259.716.438 1.034.554-.148.462-.31.912-.499 1.355a17.462 17.462 0 01-1.539 2.844c-.532.776-.95 1.354-1.268 1.736-.495.591-.973 1.034-1.453 1.35a3.228 3.228 0 01-1.788.538 3.961 3.961 0 01-1.273-.157 12.379 12.379 0 01-1.054-.397 8.558 8.558 0 00-1.114-.419 5.566 5.566 0 00-1.433-.181 5.75 5.75 0 00-1.429.179 8.864 8.864 0 00-1.116.4c-.517.215-.856.357-1.053.418-.397.118-.806.19-1.22.216-.64 0-1.235-.185-1.829-.554l.016-.016zm8.44-22.73c-.838.42-1.633.596-2.43.537-.123-.795 0-1.613.333-2.508a6.78 6.78 0 011.23-2.068A6.658 6.658 0 0115.53.677C16.342.26 17.117.037 17.856 0c.098.837 0 1.662-.308 2.549-.283.787-.7 1.52-1.231 2.167a6.21 6.21 0 01-1.953 1.551l.023.001z" fill="url(#pxv4bFjkBa)"/>
  <defs>
    <linearGradient id="pxv4bFjkBa" x1="-2.474" y1=".183" x2="34.82" y2="34.27" gradientUnits="userSpaceOnUse">
      <stop stop-color="#fff"/>
      <stop offset="1" stop-color="#fff" stop-opacity="0"/>
    </linearGradient>
  </defs>
</svg>
